<?xml version="1.0" encoding="utf-8"?>
<!-- Generator: Adobe Illustrator 21.0.2, SVG Export Plug-In . SVG Version: 6.00 Build 0)  -->
<svg version="1.1"
	 id="svg7506" inkscape:version="0.48.2 r9819" sodipodi:docname="New document 4" xmlns:cc="http://creativecommons.org/ns#" xmlns:dc="http://purl.org/dc/elements/1.1/" xmlns:inkscape="http://www.inkscape.org/namespaces/inkscape" xmlns:rdf="http://www.w3.org/1999/02/22-rdf-syntax-ns#" xmlns:sodipodi="http://sodipodi.sourceforge.net/DTD/sodipodi-0.dtd" xmlns:svg="http://www.w3.org/2000/svg"
	 xmlns="http://www.w3.org/2000/svg" xmlns:xlink="http://www.w3.org/1999/xlink" x="0px" y="0px" viewBox="0 0 529 99.4"
	 style="enable-background:new 0 0 529 99.4;" xml:space="preserve">
<style type="text/css">
	.st0{fill:#FFFFFF;}
</style>
<sodipodi:namedview  bordercolor="#666666" borderopacity="1.0" fit-margin-bottom="0.1" fit-margin-left="0.1" fit-margin-right="0.1" fit-margin-top="0.1" id="base" inkscape:current-layer="layer1" inkscape:cx="94.668802" inkscape:cy="11.496991" inkscape:document-units="px" inkscape:pageopacity="0.0" inkscape:pageshadow="2" inkscape:window-height="1038" inkscape:window-maximized="0" inkscape:window-width="1198" inkscape:window-x="717" inkscape:window-y="-21" inkscape:zoom="1.979899" pagecolor="#ffffff" showgrid="false">
	</sodipodi:namedview>
<g id="layer1" transform="translate(-284.59978,-463.99421)" inkscape:groupmode="layer" inkscape:label="Layer 1">
	<g id="g6617" transform="matrix(1.5003761,0,0,-1.5003761,-367.17041,1695.3477)">
		<g id="g1096" transform="translate(454.3529,793.6157)">
			<g id="path1098">
				<path inkscape:connector-curvature="0" sodipodi:nodetypes="ccccc" class="st0" d="M209.9-6.6c-0.1,0-0.1,0.1-0.1,0.1
					c0,0.1,0.1,0.2,0.1,0.2c0,0,0.1,0,0.1,0C210.1-6.4,210.3-6.4,209.9-6.6"/>
			</g>
		</g>
		<g id="g1528" transform="translate(487.1298,777.6427)">
			<g id="path1530">
				<path inkscape:connector-curvature="0" sodipodi:nodetypes="ccsc" class="st0" d="M209.9-6.6c-0.5-0.9-2.9,0.8-2.2,1.6
					c0.2,0.4,1,0.3,1.1,0.3C209.8-4.7,210.2-5.8,209.9-6.6"/>
			</g>
		</g>
		<g id="g1412" transform="translate(485.6495,781.4297)">
			<g id="path1414">
				<path inkscape:connector-curvature="0" sodipodi:nodetypes="cccc" class="st0" d="M209.9-6.8c-0.1,0-0.2,0.2-0.3,0.3
					c-0.3,0.9,1.2,1.3,1.6,0.9c0.4-0.4,0.3-1.1-0.3-1.1"/>
			</g>
		</g>
		<g id="g1416" transform="translate(484.3938,782.3925)">
			<g id="path1418">
				<path inkscape:connector-curvature="0" sodipodi:nodetypes="cscc" class="st0" d="M209.9-6.6c-0.2,0.1-0.3,0.4-0.3,0.5
					c0,0.4,0.4,0.9,0.7,0.8C210.8-5.5,210.5-6.8,209.9-6.6"/>
			</g>
		</g>
		<g id="g1320" transform="translate(482.2868,781.2171)">
			<g id="path1322">
				<path inkscape:connector-curvature="0" sodipodi:nodetypes="cscc" class="st0" d="M209.9-6.6c-0.2,0.7,0.5,1.3,1.1,1.3
					c0.2,0,0.6-0.3,0.7-0.6C212-6.6,210.3-7.3,209.9-6.6"/>
			</g>
		</g>
		<g id="g1376" transform="translate(480.503,785.3747)">
			<g id="path1378">
				<path inkscape:connector-curvature="0" sodipodi:nodetypes="cccc" class="st0" d="M209.9-6.9c-0.1,0-0.2,0.3-0.3,0.3
					c-0.4,0.8,1,1.3,1.6,0.9c0.4-0.5-0.3-1.3-0.9-1.3"/>
			</g>
		</g>
		<g id="g1652" transform="translate(481.7099,781.2681)">
			<g id="path1654">
				<path inkscape:connector-curvature="0" sodipodi:nodetypes="cccsc" class="st0" d="M209.9-6.6c-0.7-0.5-2.1,0.6-2.3,1.6
					c-0.2,0.2-0.6,1.9,0.5,2.1C209.3-3,209.9-5.4,209.9-6.6L209.9-6.6"/>
			</g>
		</g>
		<g id="g1456" transform="translate(476.6993,782.4373)">
			<g id="path1458">
				<path inkscape:connector-curvature="0" sodipodi:nodetypes="cccsccsccccc" class="st0" d="M209.9-6.6c-0.1,0-0.2,0-0.3,0
					c-0.2,0-0.3,0.1-0.4,0.2c-0.2,0-0.3,0-0.3,0.1c0,0.3-0.1,0.4,0,0.7c0,0.1,0,0.1,0,0.2c0.1,0.4,0.5,0.7,0.9,0.7
					c0.1,0,0.2,0,0.3,0c0.1,0,0.1,0,0.2-0.1c0.3,0.1,0.9-0.4,0.5-1c0,0,0-0.1,0-0.1C210.8-6.3,210.4-6.6,209.9-6.6"/>
			</g>
		</g>
		<g id="g1716" transform="translate(482.8961,776.561)">
			<g id="path1718">
				<path inkscape:connector-curvature="0" sodipodi:nodetypes="cscsc" class="st0" d="M209.9-6.6c-0.2,0.1-0.4,0.5-0.4,0.7
					c0,0.7,0.7,1.7,1.2,1.6c0.3-0.2,0.4-1,0.4-1.3C211.2-6.3,210.5-6.9,209.9-6.6"/>
			</g>
		</g>
		<g id="g1728" transform="translate(480.006,775.3211)">
			<g id="path1730">
				<path inkscape:connector-curvature="0" sodipodi:nodetypes="cscsc" class="st0" d="M209.9-6.6c-0.3,0-0.3,0.3-0.3,0.5
					c0,0.2,0.1,0.4,0.3,0.4c0.2,0,0.3-0.3,0.3-0.4C210.3-6.3,210.1-6.5,209.9-6.6"/>
			</g>
		</g>
		<g id="g1788" transform="translate(479.3626,774.307)">
			<g id="path1790">
				<path inkscape:connector-curvature="0" sodipodi:nodetypes="ccc" class="st0" d="M209.9-6.6c-0.2,0.4,0.1,1,0.6,0.9
					C210.8-5.9,210.3-6.7,209.9-6.6"/>
			</g>
		</g>
		<g id="g1792" transform="translate(480.4444,772.4289)">
			<g id="path1794">
				<path inkscape:connector-curvature="0" sodipodi:nodetypes="ccsc" class="st0" d="M209.9-6.6c-0.4-0.2-0.9,0.2-0.7,0.4
					c0,0,0.2,0.2,0.3,0.2C209.8-6,210.1-6.3,209.9-6.6"/>
			</g>
		</g>
		<g id="g1404" transform="translate(478.1818,773.8889)">
			<g id="path1406">
				<path inkscape:connector-curvature="0" sodipodi:nodetypes="ccscc" class="st0" d="M209.1-6.8c-0.4,0-0.2,0.4-0.3,0.6
					c-0.1,0.4,0.5,0.7,0.9,0.7c0.4,0,1-0.4,1-0.9c0-0.3-0.7-0.4-0.9-0.4"/>
			</g>
		</g>
		<g id="g1536" transform="translate(478.3491,776.6332)">
			<g id="path1538">
				<path inkscape:connector-curvature="0" sodipodi:nodetypes="ccscc" class="st0" d="M209.1-6.7c-0.5,0-0.4,0.4-0.4,0.8
					c0,0.4,0.7,0.6,1.1,0.6c0.5,0,1.2-0.3,1.3-0.8c0-0.5-0.6-0.6-1-0.6"/>
			</g>
		</g>
		<g id="g1688" transform="translate(476.303,775.8013)">
			<g id="path1690">
				<path inkscape:connector-curvature="0" sodipodi:nodetypes="ccc" class="st0" d="M209.9-6.6c-0.4,0.4-0.1,0.9,0.2,0.9
					C210.5-6,210.3-6.6,209.9-6.6"/>
			</g>
		</g>
		<g id="g1644" transform="translate(467.775,774.654)">
			<g id="path1646">
				<path inkscape:connector-curvature="0" sodipodi:nodetypes="ccsc" class="st0" d="M209.9-6.6c-1.2,0-1,0.7-1.1,1.4
					c0.5,0.2,1.2,0,1.2-0.7C210.1-5.9,210.3-6.4,209.9-6.6"/>
			</g>
		</g>
		<g id="g1608" transform="translate(466.421,773.3605)">
			<g id="path1610">
				<path inkscape:connector-curvature="0" sodipodi:nodetypes="ccscc" class="st0" d="M209-6.6c-0.6,0-0.2,0.4-0.4,1
					c0.1,0.2,0.4,0.4,0.6,0.4c0.7,0,1.5-0.5,1.5-1.1c-0.2-0.2-0.1-0.7-0.4-0.7"/>
			</g>
		</g>
		<g id="g1304" transform="translate(469.8811,771.4808)">
			<g id="path1306">
				<path inkscape:connector-curvature="0" sodipodi:nodetypes="cccc" class="st0" d="M209.9-6.6c-0.6,0.1-1.2,0.9-0.8,1.3
					c0.4,0.2,1.1-0.2,1.1-0.7C210.3-6.1,210.2-6.6,209.9-6.6"/>
			</g>
		</g>
		<g id="g1740" transform="translate(469.5753,774.5199)">
			<g id="path1742">
				<path inkscape:connector-curvature="0" sodipodi:nodetypes="csccsccsc" class="st0" d="M209.9-6.6c-0.1,0.2-0.1,0.3-0.1,0.5
					c0,0,0,0.1,0,0.1c-0.3,0.6,0,1,0.4,0.9c0.3,0.3,0.6,0.4,1,0.4c0.1,0,0.2,0,0.3,0c0.4-0.3,0.8-0.9,0.7-1.3
					c-0.2,0.1-0.5,0.1-0.7,0.1C210.9-5.9,210.3-6.2,209.9-6.6"/>
			</g>
		</g>
		<g id="g1500" transform="translate(462.4781,776.1915)">
			<g id="path1502">
				<path inkscape:connector-curvature="0" sodipodi:nodetypes="ccsc" class="st0" d="M211.1-7.3c0,0-1.2,0.7-1.2,0.7
					c0,0.5,0.3,0.9,0.8,0.9c0.1,0,0.5-0.2,0.7-0.3"/>
			</g>
		</g>
		<g id="g1496" transform="translate(462.4371,776.1919)">
			<g id="path1498">
				<path inkscape:connector-curvature="0" sodipodi:nodetypes="cccscccscsc" class="st0" d="M209.9-6.6c-0.5,0-1,0.2-1.4,0.5
					c0,0-0.5-0.3-0.5-0.3c-4-0.3-0.5,1.6-0.4,1.9c0.1,0.6-0.1,0.3,0.4,0.6c0.3,0.8,1.1,1.4,2,1.5c0.6,0.4,1.5-0.1,1.6-0.7
					c0.3-0.4,0.5-0.9,0.5-1.4c0-0.6-0.2-1.1-0.6-1.5c-0.1,0-0.3,0.1-0.4,0.1C210.6-5.9,210.2-6.2,209.9-6.6"/>
			</g>
		</g>
		<g id="g1512" transform="translate(453.3696,777.9885)">
			<g id="path1514">
				<path inkscape:connector-curvature="0" sodipodi:nodetypes="cccscscsc" class="st0" d="M209.9-6.6L209.9-6.6
					c-1.2,0-2,0.3-2.2,1.3c-0.2,0.4-0.3,0.8-0.3,1.2c0,1.2,0.9,2.3,2.1,2.5c0.1,0.2,0.3,0.2,0.6,0.2c0.2,0,0.5-0.1,0.6-0.3
					c1.1-0.3,1.8-1.3,1.8-2.4C212.5-5.4,211.4-6.6,209.9-6.6"/>
			</g>
		</g>
		<g id="g1364" transform="translate(464.0791,779.7333)">
			<g id="path1366">
				<path inkscape:connector-curvature="0" sodipodi:nodetypes="cscscsscscccsccc" class="st0" d="M209.9-6.6
					c-0.4,0.4-1,0.7-1.6,0.7c0,0,0,0,0,0c-0.2,0.3-0.3,0.5-0.3,0.9c0,0.2,0.1,0.5,0.1,0.7c0.1,0.6,0.6,1.1,1.2,1.1
					c0.2,0,0.8-0.3,1.2-0.6c0.1-0.1,0.2-0.2,0.3-0.3c0-0.2-0.7-1.1-0.7-1.3c0-0.4,0.1-0.7,0.3-1C210.3-6.5,210.1-6.6,209.9-6.6
					 M210.7-4.1c0,0.1-0.3,0.2-0.3,0.3c0,0.1,0.1,0.2,0.3,0.1c0.1-0.1,0.1-0.1,0.2-0.2C210.8-4,210.8-4.1,210.7-4.1"/>
			</g>
		</g>
		<g id="g1344" transform="translate(461.5766,782.0596)">
			<g id="path1346">
				<path inkscape:connector-curvature="0" sodipodi:nodetypes="ccscccscscc" class="st0" d="M209.9-6.6c-0.4,0-0.8,0.2-1.1,0.5
					c0,0.1,0,0.2,0,0.3c0,0.4-0.1,0.7-0.4,0.9c0,0,0,0.1,0,0.1c0.3,0.2,0.6,0.6,0.8,0.9c0.2,0.1,0.4,0.1,0.6,0.1
					c0.8,0,1.4-0.6,1.4-1.4c0.2-0.3,0-0.2,0-0.7c0,0-0.5-0.7-0.7-0.6C210.4-6.5,210.2-6.6,209.9-6.6"/>
			</g>
		</g>
		<g id="g1572" transform="translate(458.0766,783.641)">
			<g id="path1574">
				<path inkscape:connector-curvature="0" sodipodi:nodetypes="ccscsscccsc" class="st0" d="M209.9-6.6c-0.4,0.2-0.7,0.4-1,0.7
					c-0.4,0-0.5,0.5-0.5,0.7c0,0.4-0.1,0.7,0.1,0.9c0.1,1.2,1.1,2.1,2.3,2.1c1.2,0,2.3-1,2.3-2.3c0-0.3-0.1-0.6-0.2-0.9
					c0.2-0.5-0.3-0.9-0.4-1.3c0,0-0.4-0.1-0.5-0.1c-0.2,0.2-0.7-0.3-1.1-0.3C210.4-7.1,210.1-7,209.9-6.6"/>
			</g>
		</g>
		<g id="g1160" transform="translate(456.5229,789.6547)">
			<g id="path1162">
				<path inkscape:connector-curvature="0" sodipodi:nodetypes="csccc" class="st0" d="M209.9-6.6c0.1,0.7,0.1,1.3,0.8,1.3l0.7,0
					c0.2,0,0.2-0.1,0.4-0.2C212.1-6.1,210.3-7,209.9-6.6"/>
			</g>
		</g>
		<g id="g1152" transform="translate(455.3504,792.6674)">
			<g id="path1154">
				<path inkscape:connector-curvature="0" sodipodi:nodetypes="ccccccc" class="st0" d="M209.8-6.7l-0.2,0c-0.2,0-0.3,0.2-0.5,0.3
					c0,0,0.1,0.1,0.1,0.1c0.1,1.2,2.6,1.4,2.8,0.7c0.2-0.7-1.6-1-1.6-1c-0.1,0-0.5-0.1-0.6-0.1"/>
			</g>
		</g>
		<g id="g1140" transform="translate(452.8686,790.4706)">
			<g id="path1142">
				<path inkscape:connector-curvature="0" sodipodi:nodetypes="ccccc" class="st0" d="M209.9-6.6c-0.2,0-0.4,0.5-0.4,0.7
					c0,0.3,0.2,0.6,0.5,0.7c0.2-0.1,0.3-0.4,0.3-0.7C210.4-6.1,210.2-6.5,209.9-6.6"/>
			</g>
		</g>
		<g id="g1124" transform="translate(456.5129,795.0644)">
			<g id="path1126">
				<path inkscape:connector-curvature="0" sodipodi:nodetypes="ccsccc" class="st0" d="M209.8-6.7c-0.2,0-0.2,0.2-0.4,0.2
					c0,0.6,0,1.1,0.6,1.1l0.8-0.1c0.3,0,0.4-0.2,0.6-0.4c0-0.5-0.2-0.9-0.8-0.9"/>
			</g>
		</g>
		<g id="g1132" transform="translate(454.9034,796.5262)">
			<g id="path1134">
				<path inkscape:connector-curvature="0" sodipodi:nodetypes="ccccc" class="st0" d="M209.9-6.6c-0.1,0-0.2,0.3-0.2,0.4
					c0,0.2,0.2,0.4,0.3,0.5c0.1,0,0.2-0.3,0.2-0.3C210.3-6.3,210.1-6.6,209.9-6.6"/>
			</g>
		</g>
		<g id="g812" transform="translate(453.0045,800.9604)">
			<g id="path814">
				<path inkscape:connector-curvature="0" sodipodi:nodetypes="cscsc" class="st0" d="M209.9-6.6c-0.3,0.1-0.5,0.7-0.5,1
					c0,0.2,0.1,0.6,0.4,0.7c0.4,0,0.6-0.5,0.6-0.9C210.5-6,210.2-6.5,209.9-6.6"/>
			</g>
		</g>
		<g id="g1084" transform="translate(458.0615,805.4606)">
			<g id="path1086">
				<path inkscape:connector-curvature="0" sodipodi:nodetypes="cccc" class="st0" d="M210-6.8c-0.1,0-0.4,0.2-0.5,0.3
					c-0.1,1,1.2,1.5,1.7,1.1c-0.1-0.6-0.2-1.3-0.9-1.3"/>
			</g>
		</g>
		<g id="g1048" transform="translate(460.2237,809.2405)">
			<g id="path1050">
				<path inkscape:connector-curvature="0" sodipodi:nodetypes="ccsscc" class="st0" d="M209.6-6.8c-0.2,0-0.1,0.3-0.2,0.4
					c0,0,0.1,0.2,0.2,0.5c0,0.1,0.9-0.1,0.9-0.1c0.4,0.1,0.3-0.2,0.5-0.3c0-0.3-0.3-0.6-0.7-0.6"/>
			</g>
		</g>
		<g id="g1708" transform="translate(459.485,811.4468)">
			<g id="path1710">
				<path inkscape:connector-curvature="0" sodipodi:nodetypes="ccscc" class="st0" d="M209.9-6.7c-0.1,0-0.1,0.2-0.2,0.2
					c0,0.3,0.4,0.5,0.8,0.5c0.1,0,0.4,0.1,0.5-0.2c0-0.4-0.2-0.5-0.6-0.5"/>
			</g>
		</g>
		<g id="g1040" transform="translate(460.5181,806.9382)">
			<g id="path1042">
				<path inkscape:connector-curvature="0" sodipodi:nodetypes="ccccc" class="st0" d="M209.8-6.6c-0.1,0.4,0.4,0.4,0.6,0.5
					c0.2,0,0.5,0,0.4-0.1c0,0,0-0.1,0-0.2c-0.2-0.1-0.6-0.4-0.9-0.4"/>
			</g>
		</g>
		<g id="g1036" transform="translate(461.3693,807.2233)">
			<g id="path1038">
				<path inkscape:connector-curvature="0" sodipodi:nodetypes="ccsccc" class="st0" d="M209.9-6.6c-0.1,0-0.1,0-0.2,0
					c0,0.1-0.3,0.3-0.3,0.4c0,0.5,0.4,1.3,1,1.2c0.9-0.2,0.4-0.8,0.3-1C210.8-6.4,210.4-6.6,209.9-6.6"/>
			</g>
		</g>
		<g id="g828" transform="translate(461.2725,804.6531)">
			<g id="path830">
				<path inkscape:connector-curvature="0" sodipodi:nodetypes="cscccscccc" class="st0" d="M209.9-6.6c0,0-0.2-0.1-0.2-0.1
					c-1.3-0.2-1.8,1.6-1,2c0.1,0.2,0.2,0.3,0.4,0.5c0,0,0.1,0,0.1,0h0c0.3,0,0.5,0.1,0.7,0.2c0.1,0.1,0.3,0.2,0.3,0.2
					c0.3-0.1,1.6-0.9,1-1.4C211.1-6,210.6-6.5,209.9-6.6"/>
			</g>
		</g>
		<g id="g996" transform="translate(464.5164,807.3591)">
			<g id="path998">
				<path inkscape:connector-curvature="0" sodipodi:nodetypes="cscsc" class="st0" d="M209.9-6.6c-0.6,0.1-0.8,0.4-0.8,0.9
					c0,0,0.1,0.3,0.3,0.4c0.5,0,0.7-0.6,0.7-1.1C210.2-6.3,210.2-6.5,209.9-6.6"/>
			</g>
		</g>
		<g id="g1000" transform="translate(465.0405,809.5371)">
			<g id="path1002">
				<path inkscape:connector-curvature="0" sodipodi:nodetypes="ccscc" class="st0" d="M209.6-6.8c-0.3,0-0.2,0.2-0.3,0.3
					c0.1,0.6,0.9,1.1,1.6,1.1c0.3,0,0.7-0.1,0.8-0.4c0-0.7-1.1-1.1-1.8-1.1"/>
			</g>
		</g>
		<g id="g920" transform="translate(464.2051,809.7075)">
			<g id="path922">
				<path inkscape:connector-curvature="0" sodipodi:nodetypes="ccssc" class="st0" d="M209.9-6.6c-0.8,0-1.5,0.9-1.3,1.8
					c0.1,0,0.3,0.2,0.4,0.2c0.7,0,1.2-0.7,1.2-1.4C210.2-6.2,210.2-6.4,209.9-6.6"/>
			</g>
		</g>
		<g id="g940" transform="translate(465.9083,812.8584)">
			<g id="path942">
				<path inkscape:connector-curvature="0" sodipodi:nodetypes="ccscc" class="st0" d="M209.3-6.7c-0.6,0-0.7,0.6-0.5,1.1
					c0.1,0.3,0.6,0.3,0.7,0.3c0.6,0,1.4-0.5,1.3-1c0-0.3-0.4-0.4-0.6-0.4"/>
			</g>
		</g>
		<g id="g1012" transform="translate(467.0717,811.0165)">
			<g id="path1014">
				<path inkscape:connector-curvature="0" sodipodi:nodetypes="cscsc" class="st0" d="M209.9-6.6c-0.3,0.1-0.5,0.5-0.5,0.8
					c0,0.3,0.1,0.7,0.4,0.7c0.3-0.1,0.4-0.5,0.4-0.8C210.3-6.1,210.2-6.6,209.9-6.6"/>
			</g>
		</g>
		<g id="g1864" transform="translate(479.0597,804.5766)">
			<g id="path1866">
				<path inkscape:connector-curvature="0" sodipodi:nodetypes="cczcccsccc" class="st0" d="M209.9-6.6c-0.4,0-0.8,0.2-1.1,0.6
					c-0.5,0.4-0.3,1.2-0.2,1.6c0.2,0.4,0.9,0.5,0.9,0.6c0.1,0,1-0.1,1-0.1l0.5-0.3c0,0,0.4-0.7,0.4-1c0-0.3-0.1-0.9-0.3-1.3
					c-0.2-0.2-0.8,0.1-0.8,0.1C210.3-6.5,210.1-6.6,209.9-6.6"/>
			</g>
		</g>
		<g id="g1852" transform="translate(478.2328,806.8511)">
			<g id="path1854">
				<path inkscape:connector-curvature="0" sodipodi:nodetypes="ccscc" class="st0" d="M209.9-6.6c-0.5-0.1-1,0.1-1,0.8
					c0.1,0,0.2,0.2,0.3,0.2c0.4,0,1.1-0.3,1-0.7C210.2-6.4,210.1-6.5,209.9-6.6"/>
			</g>
		</g>
		<g id="g780" transform="translate(509.6488,785.8583)">
			<g id="path782">
				<path inkscape:connector-curvature="0" class="st0" d="M209.9-6.6c0,0.2,0.1,0.4,0.3,0.4h0.3c0.2,0,0.3-0.1,0.3-0.4v-4h1.7
					l2.6,4.2c0.1,0.2,0.2,0.2,0.4,0.2h0.4c0.3,0,0.4-0.2,0.2-0.4l-2.8-4.4v0l3-4.9c0.2-0.2,0-0.4-0.2-0.4h-0.4
					c-0.2,0-0.3,0.1-0.4,0.2l-2.8,4.6h-1.7V-16c0-0.2-0.1-0.4-0.3-0.4h-0.3c-0.2,0-0.3,0.1-0.3,0.4V-6.6z M199.7-6.6
					c0,0.2,0.1,0.4,0.4,0.4h0.3c0.2,0,0.4-0.1,0.4-0.4v-6.2c0-1.7,1.1-2.8,2.9-2.8c1.7,0,2.9,1,2.9,2.8v6.2c0,0.2,0.1,0.4,0.4,0.4
					h0.3c0.2,0,0.3-0.1,0.3-0.4v-6.2c0-2.2-1.6-3.7-3.9-3.7c-2.3,0-3.9,1.5-3.9,3.7C199.7-12.8,199.7-6.6,199.7-6.6z M259.8,7.2
					c0,0.3,0.2,0.5,0.5,0.5h0.5c0.3,0,0.5-0.2,0.5-0.5v-4h5.3v4c0,0.3,0.2,0.5,0.5,0.5h0.5c0.3,0,0.5-0.2,0.5-0.5V-2
					c0-0.3-0.2-0.5-0.5-0.5H267c-0.3,0-0.5,0.2-0.5,0.5v4h-5.3v-4c0-0.3-0.2-0.5-0.5-0.5h-0.5c-0.3,0-0.5,0.2-0.5,0.5
					C259.8-2,259.8,7.2,259.8,7.2z M254.4,7.8c1.7,0,2.9-0.7,3.4-1.1c0.2-0.2,0.2-0.4,0.1-0.7l-0.2-0.3c-0.2-0.3-0.4-0.3-0.7-0.1
					c-0.4,0.3-1.3,0.8-2.5,0.8c-2.4,0-3.8-1.7-3.8-3.9c0-2.2,1.4-4,3.8-4c1.3,0,2.3,0.6,2.8,1c0.2,0.2,0.5,0.2,0.7-0.1l0.2-0.3
					c0.2-0.2,0.2-0.5-0.1-0.7c-0.5-0.4-1.8-1.3-3.6-1.3c-3.1,0-5.2,2.3-5.2,5.3C249.3,5.6,251.4,7.8,254.4,7.8 M244.6,2.8
					c1.1,0,1.8,0.7,1.8,1.9c0,0.7-0.3,1.3-1,1.6c-0.3,0.1-0.6,0.2-1.2,0.2h-1.7V2.8H244.6z M241.2,7.2c0,0.3,0.2,0.5,0.5,0.5h2.7
					c1,0,1.5-0.1,1.9-0.3c1-0.4,1.6-1.4,1.6-2.7c0-1.3-0.7-2.4-1.8-2.8v0c0,0,0.1-0.1,0.3-0.5l1.8-3.4c0.2-0.3,0-0.6-0.3-0.6h-0.6
					c-0.3,0-0.4,0.1-0.6,0.3l-2,3.7h-2.2V-2c0-0.3-0.2-0.5-0.5-0.5h-0.5c-0.3,0-0.5,0.2-0.5,0.5C241.2-2,241.2,7.2,241.2,7.2z
					 M237.1,1.6L236,4.8c-0.2,0.5-0.4,1.4-0.4,1.4h0c0,0-0.2-0.9-0.4-1.4L234,1.6C234,1.6,237.1,1.6,237.1,1.6z M234.7,7.3
					c0.1,0.3,0.3,0.4,0.5,0.4h0.7c0.3,0,0.4-0.1,0.5-0.4l3.3-9.2c0.1-0.3,0-0.6-0.4-0.6h-0.5c-0.3,0-0.4,0.1-0.5,0.4l-0.9,2.5h-3.8
					l-0.9-2.5c-0.1-0.3-0.3-0.4-0.5-0.4h-0.5c-0.4,0-0.5,0.2-0.4,0.6C231.4-2,234.7,7.3,234.7,7.3z M224.2,7.2
					c0,0.3,0.2,0.5,0.5,0.5h5c0.3,0,0.5-0.2,0.5-0.5V6.9c0-0.3-0.2-0.5-0.5-0.5h-4V3.2h3.2c0.3,0,0.5-0.2,0.5-0.5V2.5
					c0-0.3-0.2-0.5-0.5-0.5h-3.2v-3.3h4.3c0.3,0,0.5-0.2,0.5-0.5V-2c0-0.3-0.2-0.5-0.5-0.5h-5.2c-0.3,0-0.5,0.2-0.5,0.5V7.2z M216-1
					l0.2,0.3c0.2,0.2,0.4,0.3,0.6,0.1c0.4-0.3,1.1-0.8,2.2-0.8c1.1,0,1.8,0.6,1.8,1.5c0,2.3-4.9,1.7-4.9,4.9c0,1.7,1.4,2.8,3.3,2.8
					c1.2,0,2.2-0.5,2.6-0.8c0.2-0.2,0.3-0.4,0.1-0.7l-0.2-0.4c-0.2-0.3-0.4-0.3-0.6-0.1c-0.4,0.2-1,0.6-1.9,0.6
					c-1.1,0-1.8-0.5-1.8-1.4c0-2.2,4.9-1.6,4.9-4.9c0-1.6-1.2-2.9-3.2-2.9c-1.5,0-2.6,0.7-3.1,1.1C215.9-1.5,215.8-1.2,216-1
					 M208.6,7.2c0,0.3,0.2,0.5,0.5,0.5h5c0.3,0,0.5-0.2,0.5-0.5V6.9c0-0.3-0.2-0.5-0.5-0.5h-4V3.2h3.2c0.3,0,0.5-0.2,0.5-0.5V2.5
					c0-0.3-0.2-0.5-0.5-0.5H210v-3.3h4.3c0.3,0,0.5-0.2,0.5-0.5V-2c0-0.3-0.2-0.5-0.5-0.5H209c-0.3,0-0.5,0.2-0.5,0.5
					C208.6-2,208.6,7.2,208.6,7.2z M203.2,2.8c1.1,0,1.8,0.7,1.8,1.9c0,0.7-0.3,1.3-1,1.6c-0.3,0.1-0.6,0.2-1.2,0.2h-1.7V2.8
					C201.2,2.8,203.2,2.8,203.2,2.8z M199.8,7.2c0,0.3,0.2,0.5,0.5,0.5h2.7c1,0,1.5-0.1,1.9-0.3c1-0.4,1.6-1.4,1.6-2.7
					c0-1.3-0.7-2.4-1.8-2.8v0c0,0,0.1-0.1,0.3-0.5l1.8-3.4c0.2-0.3,0-0.6-0.3-0.6h-0.6c-0.3,0-0.4,0.1-0.6,0.3l-2,3.7h-2.2V-2
					c0-0.3-0.2-0.5-0.5-0.5h-0.5c-0.3,0-0.5,0.2-0.5,0.5C199.8-2,199.8,7.2,199.8,7.2z M250.4,16.8c1.1,0,1.8,0.7,1.8,1.9
					c0,0.7-0.3,1.3-0.9,1.6c-0.3,0.1-0.6,0.2-1.2,0.2h-1.7v-3.6C248.3,16.8,250.4,16.8,250.4,16.8z M246.9,21.2
					c0,0.3,0.2,0.5,0.5,0.5h2.7c1,0,1.5-0.1,1.9-0.3c1-0.4,1.6-1.4,1.6-2.7c0-1.3-0.7-2.4-1.8-2.8v0c0,0,0.1-0.1,0.3-0.5l1.8-3.4
					c0.2-0.3,0-0.6-0.3-0.6H253c-0.3,0-0.4,0.1-0.6,0.3l-2,3.7h-2.2V12c0-0.3-0.2-0.5-0.5-0.5h-0.5c-0.3,0-0.5,0.2-0.5,0.5
					C246.9,12,246.9,21.2,246.9,21.2z M233.8,21.9c1.7,0,2.9-0.7,3.4-1c0.2-0.2,0.2-0.4,0.1-0.7l-0.2-0.3c-0.2-0.3-0.4-0.3-0.7-0.1
					c-0.4,0.3-1.3,0.8-2.6,0.8c-2.4,0-3.8-1.7-3.8-3.9c0-2.2,1.4-4,3.8-4c1.3,0,2.3,0.6,2.8,1c0.2,0.2,0.5,0.2,0.7-0.1l0.2-0.3
					c0.2-0.2,0.2-0.5-0.1-0.7c-0.5-0.4-1.8-1.3-3.6-1.3c-3.1,0-5.2,2.3-5.2,5.3C228.7,19.6,230.8,21.9,233.8,21.9 M218.8,21.2
					c0,0.3,0.2,0.5,0.5,0.5h0.5c0.3,0,0.4-0.1,0.6-0.3l4.3-6.3c0.4-0.5,0.8-1.5,0.8-1.5h0c0,0-0.1,0.9-0.1,1.5v6.1
					c0,0.3,0.2,0.5,0.5,0.5h0.5c0.3,0,0.5-0.2,0.5-0.5V12c0-0.3-0.2-0.5-0.5-0.5h-0.5c-0.3,0-0.4,0.1-0.6,0.3l-4.4,6.3
					c-0.4,0.6-0.8,1.5-0.8,1.5h0c0,0,0.1-0.9,0.1-1.5V12c0-0.3-0.2-0.5-0.5-0.5h-0.5c-0.3,0-0.5,0.2-0.5,0.5
					C218.8,12,218.8,21.2,218.8,21.2z M214.8,15.7l-1.1,3.2c-0.2,0.5-0.4,1.4-0.4,1.4h0c0,0-0.2-0.9-0.4-1.4l-1.1-3.2H214.8z
					 M212.4,21.3c0.1,0.3,0.3,0.4,0.5,0.4h0.7c0.3,0,0.4-0.1,0.5-0.4l3.3-9.2c0.1-0.3,0-0.5-0.4-0.5h-0.5c-0.3,0-0.4,0.1-0.5,0.4
					l-0.9,2.5h-3.8l-0.9-2.5c-0.1-0.3-0.3-0.4-0.5-0.4h-0.5c-0.4,0-0.5,0.2-0.4,0.5C209,12.1,212.4,21.3,212.4,21.3z M204.3,21.9
					c1.7,0,2.9-0.7,3.4-1c0.2-0.2,0.2-0.4,0.1-0.7l-0.2-0.3c-0.2-0.3-0.4-0.3-0.7-0.1c-0.4,0.3-1.3,0.8-2.6,0.8
					c-2.4,0-3.8-1.7-3.8-3.9c0-2.2,1.4-4,3.8-4c1.3,0,2.3,0.6,2.8,1c0.2,0.2,0.5,0.2,0.7-0.1l0.2-0.3c0.2-0.2,0.2-0.5-0.1-0.7
					c-0.5-0.4-1.8-1.3-3.6-1.3c-3.1,0-5.2,2.3-5.2,5.3C199.1,19.6,201.3,21.9,204.3,21.9 M239.2,21.2c0,0.3,0.2,0.5,0.5,0.5h5
					c0.3,0,0.5-0.2,0.5-0.5V21c0-0.3-0.2-0.5-0.5-0.5h-4v-3.2h3.2c0.3,0,0.5-0.2,0.5-0.5v-0.3c0-0.3-0.2-0.5-0.5-0.5h-3.2v-3.3h4.3
					c0.3,0,0.5-0.2,0.5-0.5V12c0-0.3-0.2-0.5-0.5-0.5h-5.2c-0.3,0-0.5,0.2-0.5,0.5V21.2z"/>
			</g>
		</g>
		<g id="g784" transform="translate(471.1126,807.5795)">
			<g id="path786">
				<path inkscape:connector-curvature="0" class="st0" d="M209.9-6.6c-0.4,0-0.9,0.1-1.2,0.3c0.2,0.2,0.3,0.5,0.3,0.8
					c0,0.6-0.5,1.1-1.1,1.1c-0.2,0-0.3,0-0.4-0.1c0,0.1,0,0.2,0,0.4c0,0.2,0,0.4,0.1,0.6c0.5,0.2,0.8,0.7,0.8,1.2c0,0,0,0.1,0,0.1
					c0.4,0.4,1,0.6,1.6,0.6c1.4,0,2.5-1.1,2.5-2.5c0-0.2,0-0.3,0-0.4c-0.4-0.2-0.6-0.6-0.6-1.1c0,0,0-0.1,0-0.1
					C211.3-6.3,210.7-6.6,209.9-6.6"/>
			</g>
		</g>
		<g id="g788" transform="translate(456.1915,798.6206)">
			<g id="path790">
				<path inkscape:connector-curvature="0" sodipodi:nodetypes="ccscscsscsc" class="st0" d="M209.9-6.6c-1.5,0-2.8,1-3.2,2.3
					c0.1,0.2,0.2,0.5,0.2,0.8c0,0.3-0.1,0.7-0.3,0.9c0.3,1.5,1.7,2.6,3.3,2.6c0.5,0,0.9-0.1,1.3-0.3c0.6,0.1,1.2-0.5,1.3-0.5
					c0.4-0.4,0.7-0.8,0.7-1.3c0,0-0.1-0.4-0.1-0.4c0.1-0.3,0.1-0.5,0.1-0.8C213.3-5.1,211.8-6.6,209.9-6.6"/>
			</g>
		</g>
		<g id="g792" transform="translate(465.397,816.3)">
			<g id="path794">
				<path inkscape:connector-curvature="0" class="st0" d="M209.9-6.6c-1.1,0-2.1,0.9-2.1,2.1c0,1.1,0.9,2.1,2.1,2.1
					s2.1-0.9,2.1-2.1C212-5.7,211.1-6.6,209.9-6.6"/>
			</g>
		</g>
		<g id="g796" transform="translate(449.5797,810.0784)">
			<g id="path798">
				<path inkscape:connector-curvature="0" class="st0" d="M209.9-6.6c-0.7,0-1.2,0.5-1.2,1.2c0,0.7,0.5,1.2,1.2,1.2
					c0.7,0,1.2-0.5,1.2-1.2C211.2-6,210.6-6.6,209.9-6.6"/>
			</g>
		</g>
		<g id="g816" transform="translate(463.4927,809.0849)">
			<g id="path818">
				<path inkscape:connector-curvature="0" sodipodi:nodetypes="cscsccc" class="st0" d="M209.9-6.6c-0.1-0.2-0.3-0.2-0.6-0.2
					c-0.1,0-0.4,0-0.4,0.3c-0.4,0.2-0.6,0.6-0.6,1.1c0,0.6,0.5,1.1,1,1.2c0.1-0.8,0.6-1.5,1.3-1.8C210.5-6.3,210.3-6.5,209.9-6.6"/>
			</g>
		</g>
		<g id="g804" transform="translate(462.843,805.8552)">
			<g id="path806">
				<path inkscape:connector-curvature="0" class="st0" d="M209.9-6.6c-0.1,0-0.2,0-0.4,0c0,0,0,0,0,0c0,0.7-0.5,1.2-1.1,1.3
					c0.3,0.3,0.6,0.7,0.6,1.1c0,0.2,0,0.4-0.1,0.5c0.2,0.1,0.4,0.3,0.7,0.3c0.2-0.1,0.4-0.2,0.6-0.2c0.1,0,0.3,0,0.4,0.1
					c0.2-0.1,0.4-0.2,0.5-0.4c0,0,0-0.1,0-0.1c0-0.5,0.2-0.9,0.5-1.3C211.5-5.9,210.8-6.6,209.9-6.6"/>
			</g>
		</g>
		<g id="g808" transform="translate(451.6063,800.1495)">
			<g id="path810">
				<path inkscape:connector-curvature="0" class="st0" d="M209.9-6.6c-0.9,0-1.6,0.7-1.6,1.6c0,0.9,0.7,1.6,1.6,1.6
					c0.5,0,1-0.3,1.3-0.7c-0.1-0.2-0.1-0.5-0.1-0.7c0-0.3,0.1-0.7,0.2-1C211.1-6.3,210.5-6.6,209.9-6.6"/>
			</g>
		</g>
		<g id="g824" transform="translate(475.5944,808.7845)">
			<g id="path826">
				<path inkscape:connector-curvature="0" class="st0" d="M209.9-6.6c0,0-0.1,0-0.1,0c-0.1,0.5-0.6,0.9-1.1,1c0,0.1,0,0.2,0,0.3
					c0,0.7,0.6,1.3,1.3,1.3c0.7,0,1.3-0.6,1.3-1.3C211.2-6,210.7-6.6,209.9-6.6"/>
			</g>
		</g>
		<g id="g836" transform="translate(477.8233,815.6438)">
			<g id="path838">
				<path inkscape:connector-curvature="0" class="st0" d="M209.9-6.6c0,0.1,0,0.2,0,0.3c0,0.7-0.3,1.4-0.8,1.8
					c0.2,0.1,0.4,0.2,0.7,0.2c0.6,0,1.2-0.5,1.2-1.2C210.9-6,210.5-6.5,209.9-6.6"/>
			</g>
		</g>
		<g id="g840" transform="translate(475.5573,812.3567)">
			<g id="path842">
				<path inkscape:connector-curvature="0" class="st0" d="M209.9-6.6c0,0.1,0,0.1,0,0.2c0,0.4-0.3,0.7-0.7,0.7
					c-0.3,0-0.5-0.2-0.6-0.4c-0.1,0.2-0.1,0.4-0.1,0.5c0,0.2,0.1,0.4,0.2,0.6c0.4-0.3,0.8-0.4,1.3-0.4c0.3,0,0.6,0.1,0.8,0.1
					c0-0.1,0.1-0.2,0.1-0.3C210.8-6,210.4-6.4,209.9-6.6"/>
			</g>
		</g>
		<g id="g844" transform="translate(478.9725,813.3837)">
			<g id="path846">
				<path inkscape:connector-curvature="0" class="st0" d="M209.9-6.6c-0.3,0.2-0.6,0.3-0.9,0.3c-0.1,0-0.2,0-0.3,0
					c-0.2,0.2-0.3,0.5-0.3,0.8c0,0.1,0,0.2,0,0.3c0.1,0.1,0.1,0.2,0.2,0.3c0.2,0.3,0.5,0.4,0.9,0.4c0.3,0,0.7-0.2,0.9-0.4
					c-0.1-0.2-0.2-0.4-0.2-0.6c0-0.3,0.1-0.5,0.3-0.7C210.3-6.4,210.2-6.5,209.9-6.6"/>
			</g>
		</g>
		<g id="g852" transform="translate(477.6612,815.6326)">
			<g id="path854">
				<path inkscape:connector-curvature="0" sodipodi:nodetypes="cscscc" class="st0" d="M209.9-6.6c-0.6,0-1.6,0.5-1.6,1.1
					c0,0.4,0.7,0.8,1,1c0.7-0.1,1.3-0.7,1.3-1.4c0-0.1-0.5-0.6-0.5-0.7C210.1-6.6,210-6.6,209.9-6.6"/>
			</g>
		</g>
		<g id="g856" transform="translate(475.5503,813.6807)">
			<g id="path858">
				<path inkscape:connector-curvature="0" sodipodi:nodetypes="ccscc" class="st0" d="M209.1-6.8c-0.5,0-0.1,0.3-0.4,0.6
					c0.2,0.3,0.6,0.9,1,0.9c0.5,0,0.9-0.7,1.1-1.2c-0.3-0.1-0.7-0.4-1-0.4"/>
			</g>
		</g>
		<g id="g860" transform="translate(477.4965,814.7562)">
			<g id="path862">
				<path inkscape:connector-curvature="0" class="st0" d="M209.9-6.6c0,0.1,0.1,0.2,0.2,0.3C210.1-6.4,210-6.5,209.9-6.6"/>
			</g>
		</g>
		<g id="g864" transform="translate(474.2027,807.1611)">
			<g id="path866">
				<path inkscape:connector-curvature="0" class="st0" d="M209.9-6.6c-0.7,0-1.2,0.5-1.3,1.2c0.3,0.3,0.5,0.8,0.6,1.2
					c0.2,0.1,0.4,0.2,0.7,0.2c0,0,0.1,0,0.1,0c0.1-0.5,0.6-0.9,1.1-1c0-0.1,0-0.2,0-0.3c0-0.3-0.1-0.5-0.2-0.7c-0.1,0-0.1,0-0.2,0
					c-0.3,0-0.6-0.2-0.7-0.6C210.1-6.6,210-6.6,209.9-6.6"/>
			</g>
		</g>
		<g id="g868" transform="translate(472.9006,808.351)">
			<g id="path870">
				<path inkscape:connector-curvature="0" sodipodi:nodetypes="cscc" class="st0" d="M209.9-6.6c-0.3,0.1-0.3,0.3-0.3,0.3
					c0,0.5,0.7,1.1,1,0.9C211-5.6,210.4-6.7,209.9-6.6"/>
			</g>
		</g>
		<g id="g872" transform="translate(475.4745,808.79)">
			<g id="path874">
				<path inkscape:connector-curvature="0" sodipodi:nodetypes="ccc" class="st0" d="M209.9-6.6c-0.5-0.3-1.6,0.4-1.1,1
					C209.3-5.3,210.2-6.2,209.9-6.6"/>
			</g>
		</g>
		<g id="g880" transform="translate(476.6331,818.004)">
			<g id="path882">
				<path inkscape:connector-curvature="0" sodipodi:nodetypes="ccc" class="st0" d="M209.9-6.6c-0.2,0-0.4-0.1-0.5,0.2
					C209.7-6.3,209.8-6.4,209.9-6.6"/>
			</g>
		</g>
		<g id="g884" transform="translate(469.598,812.6967)">
			<g id="path886">
				<path inkscape:connector-curvature="0" class="st0" d="M209.9-6.6c-0.6,0-1,0.4-1,1c0,0.4,0.2,0.7,0.5,0.9c0,0,0.1,0,0.1,0
					c0.2,0,0.4,0.1,0.6,0.1c0.5-0.1,0.8-0.5,0.8-1C211-6.1,210.5-6.6,209.9-6.6"/>
			</g>
		</g>
		<g id="g888" transform="translate(461.1591,813.945)">
			<g id="path890">
				<path inkscape:connector-curvature="0" sodipodi:nodetypes="ccssc" class="st0" d="M209.9-6.6c-1.5-1-1.6,0.9-1.4,1.1
					c0.1,0.5,0.5,0.8,1,0.8c0.6,0,1-0.4,1-1C210.5-6.1,210.3-6.4,209.9-6.6"/>
			</g>
		</g>
		<g id="g896" transform="translate(474.4079,807.1772)">
			<g id="path898">
				<path inkscape:connector-curvature="0" sodipodi:nodetypes="cscc" class="st0" d="M209.9-6.6c-0.2,0.4,0.2,0.7,0.6,0.7
					c0.1,0,0.2-0.1,0.3-0.2C211-6.4,210.3-6.9,209.9-6.6"/>
			</g>
		</g>
		<g id="g900" transform="translate(440.162,814.9188)">
			<g id="path902">
				<path inkscape:connector-curvature="0" class="st0" d="M209.9-6.6c-0.4,0-0.7,0.3-0.7,0.7c0,0.4,0.3,0.7,0.7,0.7
					s0.7-0.3,0.7-0.7C210.7-6.3,210.4-6.6,209.9-6.6"/>
			</g>
		</g>
		<g id="g904" transform="translate(474.8615,811.8481)">
			<g id="path906">
				<path inkscape:connector-curvature="0" class="st0" d="M209.9-6.6c-0.4,0-0.7,0.3-0.7,0.7c0,0.1,0,0.2,0.1,0.4
					c0.2-0.4,0.6-0.6,1-0.6c0.1,0,0.2,0,0.3,0C210.6-6.4,210.3-6.6,209.9-6.6"/>
			</g>
		</g>
		<g id="g908" transform="translate(475.2489,812.3152)">
			<g id="path910">
				<path inkscape:connector-curvature="0" sodipodi:nodetypes="ccsscc" class="st0" d="M209.2-6.6c-0.4,0-0.1,0.2-0.3,0.6
					c0.1,0.3,0.5,0.6,0.8,0.6c0.4,0,0.6-0.5,0.6-0.9c0-0.1,0-0.2-0.1-0.2c-0.1,0-0.5-0.2-0.6-0.2"/>
			</g>
		</g>
		<g id="g912" transform="translate(452.9354,817.9664)">
			<g id="path914">
				<path inkscape:connector-curvature="0" class="st0" d="M209.9-6.6c-0.4,0-0.7,0.3-0.7,0.7c0,0.4,0.3,0.7,0.7,0.7
					c0.4,0,0.7-0.3,0.7-0.7C210.7-6.3,210.4-6.6,209.9-6.6"/>
			</g>
		</g>
		<g id="g916" transform="translate(464.3208,809.662)">
			<g id="path918">
				<path inkscape:connector-curvature="0" class="st0" d="M209.9-6.6c0,0-0.1,0-0.1,0c0.1,0.2,0.1,0.3,0.1,0.5
					c0,0.7-0.5,1.2-1.2,1.2c-0.1,0-0.1,0-0.2,0c0,0.1,0,0.1,0,0.2c0,1.1,0.8,1.9,1.8,2.1c0.2-0.5,0.7-0.9,1.2-0.9
					c0.3,0,0.5,0.1,0.7,0.2c0.1-0.2,0.3-0.4,0.4-0.6c-0.1-0.2-0.2-0.4-0.2-0.7c0-0.3,0.1-0.6,0.3-0.8c-0.1-0.2-0.2-0.4-0.3-0.6
					c-0.2,0.1-0.5,0.2-0.8,0.2C210.9-5.7,210.3-6,209.9-6.6"/>
			</g>
		</g>
		<g id="g924" transform="translate(455.5669,808.1589)">
			<g id="path926">
				<path inkscape:connector-curvature="0" class="st0" d="M209.9-6.6c-1.2,0-2.1,1-2.1,2.1c0,0.7,0.3,1.2,0.8,1.6
					c0.3,0.1,0.6,0.2,0.9,0.4c0.2,0,0.3,0.1,0.5,0.1c1.2,0,2.1-1,2.1-2.1S211.1-6.6,209.9-6.6"/>
			</g>
		</g>
		<g id="g928" transform="translate(459.588,809.4062)">
			<g id="path930">
				<path inkscape:connector-curvature="0" class="st0" d="M209.9-6.6c-0.4,0.2-0.7,0.6-0.7,1.1c0,0.4,0.1,0.7,0.4,0.9
					c0.1,0,0.1,0,0.2,0c0.4,0,0.8,0.1,1.1,0.3c0.6-0.1,1-0.6,1-1.3c0-0.4-0.1-0.7-0.4-0.9c-0.2,0.1-0.4,0.1-0.6,0.1c0,0,0,0,0,0
					C210.5-6.2,210.2-6.4,209.9-6.6"/>
			</g>
		</g>
		<g id="g932" transform="translate(463.5821,774.2953)">
			<g id="path934">
				<path inkscape:connector-curvature="0" class="st0" d="M209.9-6.6c-0.7,0-1.3,0.6-1.3,1.3c0,0.2,0.1,0.4,0.1,0.6c0,0,0,0,0,0
					c0.6,0,1.1,0.2,1.5,0.6c0.5-0.2,0.9-0.7,0.9-1.2C211.2-6,210.7-6.6,209.9-6.6"/>
			</g>
		</g>
		<g id="g936" transform="translate(466.6383,813.0848)">
			<g id="path938">
				<path inkscape:connector-curvature="0" class="st0" d="M209.9-6.6c-0.4,0.4-1,0.7-1.6,0.7c-0.1,0-0.2,0-0.4,0
					c0,0.1-0.1,0.2-0.1,0.4c0,0.7,0.6,1.3,1.3,1.3c0.7,0,1.3-0.6,1.3-1.3C210.5-6,210.3-6.3,209.9-6.6"/>
			</g>
		</g>
		<g id="g944" transform="translate(448.8479,804.9528)">
			<g id="path946">
				<path inkscape:connector-curvature="0" class="st0" d="M209.9-6.6c-0.7,0-1.3,0.6-1.3,1.3c0,0.7,0.6,1.3,1.3,1.3
					c0.7,0,1.3-0.6,1.3-1.3C211.2-6,210.7-6.6,209.9-6.6"/>
			</g>
		</g>
		<g id="g956" transform="translate(478.5638,813.3071)">
			<g id="path958">
				<path inkscape:connector-curvature="0" sodipodi:nodetypes="ccscc" class="st0" d="M209.2-6.7c-0.3,0-0.1,0.2,0,0.4
					c0,0.1,0.3,0.2,0.4,0.2c0.3,0,0.8-0.2,0.8-0.4c0-0.1-0.5-0.3-0.6-0.3"/>
			</g>
		</g>
		<g id="g960" transform="translate(441.9056,808.884)">
			<g id="path962">
				<path inkscape:connector-curvature="0" class="st0" d="M209.9-6.6c-0.7,0-1.2,0.6-1.2,1.2c0,0.7,0.6,1.2,1.2,1.2
					c0.7,0,1.2-0.6,1.2-1.2C211.2-6,210.6-6.6,209.9-6.6"/>
			</g>
		</g>
		<g id="g964" transform="translate(459.4271,802.7814)">
			<g id="path966">
				<path inkscape:connector-curvature="0" class="st0" d="M209.9-6.6c-0.3,1-1,1.9-2,2.3c0,0.2,0.1,0.3,0.2,0.5
					c0.1,0,0.3-0.1,0.4-0.1c0,0,0,0,0,0c0.7,0,1.2,0.5,1.3,1.2h0c0.2,0,0.5,0,0.7-0.1c-0.1-0.2-0.1-0.4-0.1-0.6
					c0-0.7,0.6-1.3,1.3-1.3c0,0,0.1,0,0.1,0C211.8-5.7,211-6.5,209.9-6.6"/>
			</g>
		</g>
		<g id="g976" transform="translate(453.7967,811.881)">
			<g id="path978">
				<path inkscape:connector-curvature="0" class="st0" d="M209.9-6.6c-1.1,0-1.9,0.9-1.9,1.9s0.9,1.9,1.9,1.9
					c0.3,0,0.7-0.1,0.9-0.2c0.1-0.1,0.2-0.1,0.3-0.2c0.4-0.4,0.7-0.9,0.7-1.5c0-0.6-0.2-1.1-0.6-1.4c-0.3-0.1-0.6-0.2-0.9-0.4
					C210.2-6.6,210.1-6.6,209.9-6.6"/>
			</g>
		</g>
		<g id="g980" transform="translate(454.194,811.9221)">
			<g id="path982">
				<path inkscape:connector-curvature="0" class="st0" d="M209.9-6.6c0.2,0.2,0.5,0.4,0.9,0.4C210.6-6.4,210.3-6.5,209.9-6.6"/>
			</g>
		</g>
		<g id="g984" transform="translate(447.3721,811.606)">
			<g id="path986">
				<path inkscape:connector-curvature="0" class="st0" d="M209.9-6.6c-0.9,0-1.7,0.8-1.7,1.7c0,0.9,0.8,1.7,1.7,1.7
					c0.9,0,1.7-0.8,1.7-1.7C211.6-5.8,210.9-6.6,209.9-6.6"/>
			</g>
		</g>
		<g id="g988" transform="translate(443.6791,803.4254)">
			<g id="path990">
				<path inkscape:connector-curvature="0" class="st0" d="M209.9-6.6c-0.8,0-1.4,0.6-1.4,1.4c0,0.8,0.6,1.4,1.4,1.4
					c0.8,0,1.4-0.6,1.4-1.4C211.4-5.9,210.7-6.6,209.9-6.6"/>
			</g>
		</g>
		<g id="g992" transform="translate(465.9438,806.7209)">
			<g id="path994">
				<path inkscape:connector-curvature="0" class="st0" d="M209.9-6.6c-0.6,0-1.1,0.2-1.4,0.6c0,0.1,0,0.1,0,0.2
					c0,0.5-0.2,0.9-0.5,1.2c0,0.3,0.1,0.7,0.3,0.9c0.2-0.1,0.5-0.1,0.7-0.1c0.7,0,1.3,0.3,1.7,0.8c0.7-0.3,1.1-1,1.1-1.7
					C211.9-5.7,211-6.6,209.9-6.6"/>
			</g>
		</g>
		<g id="g1004" transform="translate(468.1652,810.4666)">
			<g id="path1006">
				<path inkscape:connector-curvature="0" class="st0" d="M209.9-6.6c-0.4,0-0.8,0.2-1.1,0.6c0.1,0.2,0.1,0.4,0.1,0.7
					c0,0.3-0.1,0.6-0.2,0.8c0.2,0.4,0.7,0.7,1.2,0.7c0.7,0,1.3-0.6,1.4-1.3c-0.4-0.3-0.7-0.8-0.8-1.3C210.3-6.5,210.1-6.6,209.9-6.6
					"/>
			</g>
		</g>
		<g id="g1008" transform="translate(468.7209,810.5848)">
			<g id="path1010">
				<path inkscape:connector-curvature="0" sodipodi:nodetypes="ccsc" class="st0" d="M209.8-6.5c0.1,0.5,0.3,1.2,0.9,1.3
					c0,0,0.2-0.3,0.2-0.3c0-0.6-0.5-1.2-1-1"/>
			</g>
		</g>
		<g id="g1016" transform="translate(469.0636,814.5563)">
			<g id="path1018">
				<path inkscape:connector-curvature="0" class="st0" d="M209.9-6.6c-0.7,0.1-1.2,0.6-1.2,1.4c0,0.4,0.1,0.7,0.4,0.9
					c0.4-0.6,1.1-1,1.9-1c0.1,0,0.3,0,0.4,0c0-0.5-0.3-1-0.8-1.2c-0.1,0-0.1,0-0.2,0C210.3-6.4,210.1-6.5,209.9-6.6"/>
			</g>
		</g>
		<g id="g1020" transform="translate(469.1757,814.5518)">
			<g id="path1022">
				<path inkscape:connector-curvature="0" sodipodi:nodetypes="ccscc" class="st0" d="M210-6.7c0,0-0.1,0.2-0.1,0.2
					c0.2,0.1,0.1,0.3,0.3,0.3c0.1,0,0.3-0.1,0.4-0.1C210.5-6.5,210.3-6.8,210-6.7"/>
			</g>
		</g>
		<g id="g1024" transform="translate(453.1128,792.6572)">
			<g id="path1026">
				<path inkscape:connector-curvature="0" class="st0" d="M209.9-6.6C209.9-6.6,209.9-6.6,209.9-6.6c-0.7,0-1.3,0.6-1.3,1.3
					c0,0.7,0.6,1.3,1.3,1.3c0,0,0,0,0,0c0.7,0,1.3-0.6,1.3-1.3c0-0.1,0-0.2,0-0.3c0,0,0,0,0-0.1C211-6.2,210.5-6.6,209.9-6.6"/>
			</g>
		</g>
		<g id="g1028" transform="translate(451.4799,789.677)">
			<g id="path1030">
				<path inkscape:connector-curvature="0" class="st0" d="M209.9-6.6C209.9-6.6,209.9-6.6,209.9-6.6c-0.9,0-1.6,0.7-1.6,1.6
					c0,0.9,0.7,1.6,1.6,1.6h0c0.7,0,1.3-0.4,1.5-1c-0.1-0.3-0.2-0.5-0.2-0.8c0-0.2,0-0.4,0.1-0.6C211.1-6.3,210.5-6.6,209.9-6.6"/>
			</g>
		</g>
		<g id="g1032" transform="translate(460.373,806.9464)">
			<g id="path1034">
				<path inkscape:connector-curvature="0" class="st0" d="M209.9-6.6c-0.7,0.1-1.3,0.7-1.3,1.4c0,0.4,0.2,0.8,0.5,1.1
					c0.2-0.1,0.4-0.2,0.6-0.2c0.4,0,0.7,0.1,0.9,0.4c0.3-0.2,0.6-0.4,0.7-0.7C211-5,210.7-5.4,210.7-6c0-0.1,0-0.2,0-0.3
					c0,0,0,0,0,0C210.5-6.3,210.2-6.4,209.9-6.6"/>
			</g>
		</g>
		<g id="g1052" transform="translate(439.2941,797.2971)">
			<g id="path1054">
				<path inkscape:connector-curvature="0" class="st0" d="M209.9-6.6L209.9-6.6c-0.7,0-1.3,0.6-1.3,1.3c0,0.7,0.6,1.3,1.3,1.3
					c0,0,0,0,0,0c0.7,0,1.3-0.6,1.3-1.3C211.2-6,210.7-6.6,209.9-6.6"/>
			</g>
		</g>
		<g id="g1056" transform="translate(435.4392,802.678)">
			<g id="path1058">
				<path inkscape:connector-curvature="0" class="st0" d="M209.9-6.6L209.9-6.6c-0.5,0-1,0.4-1,1c0,0.5,0.4,1,1,1h0
					c0.5,0,1-0.4,1-1C210.9-6.2,210.5-6.6,209.9-6.6"/>
			</g>
		</g>
		<g id="g1060" transform="translate(435.8984,784.3461)">
			<g id="path1062">
				<path inkscape:connector-curvature="0" class="st0" d="M209.9-6.6C209.9-6.6,209.9-6.6,209.9-6.6c-0.5,0-1,0.4-1,1
					c0,0.5,0.4,1,1,1c0.5,0,1-0.4,1-1C210.9-6.2,210.5-6.6,209.9-6.6"/>
			</g>
		</g>
		<g id="g1064" transform="translate(447.9493,789.4853)">
			<g id="path1066">
				<path inkscape:connector-curvature="0" class="st0" d="M209.9-6.6C209.9-6.6,209.9-6.6,209.9-6.6c-0.7,0-1.3,0.6-1.3,1.3
					c0,0.7,0.6,1.3,1.3,1.3c0.7,0,1.3-0.6,1.3-1.3C211.2-6,210.7-6.6,209.9-6.6"/>
			</g>
		</g>
		<g id="g1068" transform="translate(468.94,770.8048)">
			<g id="path1070">
				<path inkscape:connector-curvature="0" class="st0" d="M209.9-6.6L209.9-6.6c-0.6,0-1,0.5-1,1c0,0.6,0.5,1,1,1c0,0,0.1,0,0.1,0
					c0.1-0.5,0.4-1,0.8-1.3C210.8-6.3,210.4-6.6,209.9-6.6"/>
			</g>
		</g>
		<g id="g1072" transform="translate(457.5126,793.6719)">
			<g id="path1074">
				<path inkscape:connector-curvature="0" class="st0" d="M209.9-6.6c-0.3,0.2-0.6,0.2-1,0.2h0c-0.1,0-0.1,0-0.2,0
					c-0.1,0.2-0.2,0.4-0.4,0.6c0,0.1-0.1,0.2-0.1,0.4c0,0.1,0,0.2,0,0.3c0.2-0.1,0.4-0.1,0.6-0.1c0,0,0,0,0,0c0.6,0,1.1,0.3,1.4,0.7
					c0.3-0.2,0.5-0.6,0.5-1C210.8-6,210.4-6.4,209.9-6.6"/>
			</g>
		</g>
		<g id="g1076" transform="translate(449.6026,795.8222)">
			<g id="path1078">
				<path inkscape:connector-curvature="0" class="st0" d="M209.9-6.6C209.9-6.6,209.9-6.6,209.9-6.6c-0.7,0-1.3,0.6-1.3,1.3
					c0,0.7,0.6,1.3,1.3,1.3h0c0.7,0,1.3-0.6,1.3-1.3C211.2-6,210.7-6.6,209.9-6.6"/>
			</g>
		</g>
		<g id="g1080" transform="translate(457.6322,805.5342)">
			<g id="path1082">
				<path inkscape:connector-curvature="0" class="st0" d="M209.9-6.6c-0.5,0.2-0.9,0.7-0.9,1.2c0,0.7,0.6,1.3,1.3,1.3c0,0,0,0,0,0
					c0.7,0,1.3-0.6,1.3-1.3c0,0,0-0.1,0-0.1C210.9-5.5,210.3-5.9,209.9-6.6"/>
			</g>
		</g>
		<g id="g1088" transform="translate(451.8663,805.4212)">
			<g id="path1090">
				<path inkscape:connector-curvature="0" class="st0" d="M209.9-6.6L209.9-6.6c-1,0-1.8,0.8-1.8,1.8c0,1,0.8,1.8,1.8,1.8
					c0,0,0,0,0,0c1,0,1.8-0.8,1.8-1.8C211.7-5.8,210.9-6.6,209.9-6.6"/>
			</g>
		</g>
		<g id="g1092" transform="translate(454.6588,792.9446)">
			<g id="path1094">
				<path inkscape:connector-curvature="0" class="st0" d="M209.9-6.6c-0.2,0.2-0.3,0.4-0.3,0.7c0,0.1,0,0.2,0,0.3c0,0,0,0,0,0
					c0.1,0.4,0.5,0.7,1,0.7c0.2,0,0.4-0.1,0.6-0.2c0.1-0.2,0.2-0.4,0.4-0.6C210.9-5.7,210.4-6.1,209.9-6.6
					C210-6.6,210-6.6,209.9-6.6C210-6.6,210-6.6,209.9-6.6C210-6.6,210-6.6,209.9-6.6"/>
			</g>
		</g>
		<g id="g1100" transform="translate(456.3011,793.9088)">
			<g id="path1102">
				<path inkscape:connector-curvature="0" class="st0" d="M209.9-6.6c-0.2,0.1-0.3,0.3-0.4,0.6C209.8-6.2,209.9-6.4,209.9-6.6
					C210-6.6,210-6.6,209.9-6.6"/>
			</g>
		</g>
		<g id="g1104" transform="translate(456.5137,789.6546)">
			<g id="path1106">
				<path inkscape:connector-curvature="0" sodipodi:nodetypes="cccccccccsccccscc" class="st0" d="M209.9-6.6
					C209.9-6.6,209.9-6.6,209.9-6.6c-0.2,0-0.3,0-0.4,0c-0.7,0-1.8,0.3-1.8,0.9c-0.3,1.3,0,2,0.4,2.4c0.4-0.3,0.9-0.2,0.9-0.2
					c0.4,0.1,0.7,0.5,0.7,1c0,0.1,0,0.2,0,0.2c0.2-0.2,0.5-0.3,0.8-0.3h0c0.1,0,0.3,0,0.4,0.1c0.7-0.4,1.1-1.1,1.1-1.9
					c0-0.4-0.1-0.7-0.3-1c-0.2,0.1-0.3,0.1-0.5,0.1h0C210.6-5.4,210-5.9,209.9-6.6C210-6.6,210-6.6,209.9-6.6"/>
			</g>
		</g>
		<g id="g1120" transform="translate(455.9295,795.1714)">
			<g id="path1122">
				<path inkscape:connector-curvature="0" class="st0" d="M209.9-6.6c-0.6,0.2-1,0.7-1,1.4c0.1,0.2,0.1,0.5,0.1,0.7
					c0,0,0,0.1,0,0.1c0.3,0.6,0.8,1,1.5,1c0,0,0,0,0,0c0.9,0,1.6-0.7,1.6-1.6c0-0.3-0.1-0.6-0.3-0.9c-0.2,0.2-0.5,0.3-0.8,0.3h0
					C210.6-5.7,210.1-6.1,209.9-6.6"/>
			</g>
		</g>
		<g id="g1128" transform="translate(453.1266,795.3222)">
			<g id="path1130">
				<path inkscape:connector-curvature="0" class="st0" d="M209.9-6.6C209.9-6.6,209.9-6.6,209.9-6.6c-1.1,0-1.9,0.9-1.9,1.9
					c0,1.1,0.9,1.9,1.9,1.9c0,0,0,0,0,0c1,0,1.8-0.8,1.9-1.8c-0.1-0.2-0.1-0.4-0.1-0.7c0-0.1,0-0.1,0-0.2
					C211.4-6.1,210.8-6.6,209.9-6.6"/>
			</g>
		</g>
		<g id="g1136" transform="translate(454.7015,789.1146)">
			<g id="path1138">
				<path inkscape:connector-curvature="0" class="st0" d="M209.9-6.6C209.9-6.6,209.9-6.6,209.9-6.6c-0.9,0-1.6,0.6-1.8,1.4
					c0.1,0.2,0.2,0.5,0.2,0.8c0,0.2,0,0.4-0.1,0.6c0.3,0.6,0.9,1.1,1.7,1.1c0,0,0,0,0,0c-0.2-0.3-0.3-0.7-0.3-1.1
					c0-1,0.7-1.9,1.7-2.1C211-6.4,210.5-6.6,209.9-6.6"/>
			</g>
		</g>
		<g id="g1144" transform="translate(454.7025,792.905)">
			<g id="path1146">
				<path inkscape:connector-curvature="0" class="st0" d="M209.9-6.6C209.9-6.6,209.9-6.6,209.9-6.6C209.9-6.5,209.9-6.5,209.9-6.6
					C209.9-6.5,210-6.5,209.9-6.6C210-6.5,210-6.5,209.9-6.6C210-6.6,210-6.6,209.9-6.6"/>
			</g>
		</g>
		<g id="g1156" transform="translate(457.8747,788.136)">
			<g id="path1158">
				<path inkscape:connector-curvature="0" class="st0" d="M209.9-6.6C209.9-6.6,209.9-6.6,209.9-6.6c-0.8,0-1.4,0.6-1.4,1.4
					c0,0.1,0,0.1,0,0.2c0.8,0,1.5,0.4,1.9,1.1c0.5-0.2,0.8-0.7,0.8-1.3C211.3-6,210.7-6.6,209.9-6.6"/>
			</g>
		</g>
		<g id="g1164" transform="translate(473.6229,817.2266)">
			<g id="path1166">
				<path inkscape:connector-curvature="0" class="st0" d="M209.9-6.6c-0.5,0.3-0.9,0.8-0.9,1.4c0,0.9,0.7,1.6,1.6,1.6
					c0.7,0,1.2-0.4,1.5-1c0-0.1-0.1-0.2-0.1-0.3c0-0.2,0.1-0.4,0.2-0.5c0-0.1,0-0.1,0-0.2c-0.1,0-0.2,0-0.3,0
					C211.1-5.5,210.4-6,209.9-6.6"/>
			</g>
		</g>
		<g id="g1168" transform="translate(474.3442,817.0541)">
			<g id="path1170">
				<path inkscape:connector-curvature="0" sodipodi:nodetypes="ccscc" class="st0" d="M209.8-7c-0.3,0-0.4,0.5-0.6,0.6
					c0.4,0.6-0.1,1.4,0.7,1.4c0.1,0,1.4-0.3,1.5-0.4c-0.2-0.7-0.1-1.7-0.8-1.7"/>
			</g>
		</g>
		<g id="g1172" transform="translate(475.919,818.4014)">
			<g id="path1174">
				<path inkscape:connector-curvature="0" sodipodi:nodetypes="cscsc" class="st0" d="M209.9-6.6c-0.1,0.1-0.3,0.3-0.3,0.5
					c0,0.1,0.1,0.2,0.2,0.4c0.1-0.2,0.2-0.4,0.2-0.6C210.1-6.4,210-6.5,209.9-6.6"/>
			</g>
		</g>
		<g id="g1180" transform="translate(481.444,808.7955)">
			<g id="path1182">
				<path inkscape:connector-curvature="0" sodipodi:nodetypes="cscsc" class="st0" d="M209.9-6.6c-0.1,0-0.3,0.3-0.3,0.5
					c0,0.1,0.2,0.3,0.2,0.3s0.3-0.3,0.3-0.5C210.1-6.3,210.2-6.5,209.9-6.6"/>
			</g>
		</g>
		<g id="g1176" transform="translate(479.8582,806.874)">
			<g id="path1178">
				<path inkscape:connector-curvature="0" class="st0" d="M209.9-6.6c-0.2,0.2-0.5,0.3-0.8,0.3c-0.2,0-0.3,0-0.4-0.1
					c-0.2,0.3-0.6,0.6-1.1,0.6c-0.1,0-0.2,0-0.3,0c-0.3,0.4-0.5,0.9-0.5,1.4c0,0.6,0.2,1.2,0.6,1.6c0.2-0.1,0.4-0.1,0.7-0.1
					c0.6,0,1.1,0.3,1.4,0.8c0.9-0.1,1.6-0.8,1.9-1.6c0-0.1,0-0.2,0-0.3c0-0.2,0-0.4,0.1-0.6c-0.1-0.6-0.3-1.1-0.7-1.5
					C210.5-6.2,210.2-6.3,209.9-6.6"/>
			</g>
		</g>
		<g id="g1184" transform="translate(478.0917,810.4666)">
			<g id="path1186">
				<path inkscape:connector-curvature="0" sodipodi:nodetypes="ccscc" class="st0" d="M209.8-6.8c-0.2,0-0.5,0.4-0.5,0.4
					s0.3,1.3,1,1.3c0.1,0,1-0.4,1.1-0.6c0.1-0.6-0.6-1-1.2-1"/>
			</g>
		</g>
		<g id="g1196" transform="translate(470.146,815.8477)">
			<g id="path1198">
				<path inkscape:connector-curvature="0" sodipodi:nodetypes="ccsscc" class="st0" d="M210-6.8c-0.8,0-1.9,0.4-2,1.2
					c0.2,0.3,0.5,0.6,0.9,0.6c0.7,0,1.8-0.5,1.5-1.5c0,0,0,0,0,0c-0.1,0-0.5-0.5-0.6-0.5"/>
			</g>
		</g>
		<g id="g1204" transform="translate(482.1454,810.551)">
			<g id="path1206">
				<path inkscape:connector-curvature="0" sodipodi:nodetypes="cscc" class="st0" d="M209.9-6.6c0,0.1,0.1,0.2,0.3,0.2
					c0,0,0.2-0.1,0.3-0.1C210.4-6.7,210.1-6.8,209.9-6.6"/>
			</g>
		</g>
		<g id="g1212" transform="translate(484.663,809.8347)">
			<g id="path1214">
				<path inkscape:connector-curvature="0" class="st0" d="M209.9-6.6c-0.6,0.2-1,0.7-1.2,1.3c0.3,0.3,0.5,0.8,0.6,1.3
					c0.2-0.1,0.5-0.2,0.7-0.2c0.7,0,1.3,0.4,1.5,1.1c0.3-0.2,0.5-0.4,0.7-0.6c-0.9-0.2-1.6-1-1.6-2c0-0.1,0-0.1,0-0.2
					C210.3-6.1,210.1-6.3,209.9-6.6"/>
			</g>
		</g>
		<g id="g1216" transform="translate(484.7678,812.231)">
			<g id="path1218">
				<path inkscape:connector-curvature="0" sodipodi:nodetypes="ccscscc" class="st0" d="M209.6-6.8c-0.3,0-0.4,0.4-0.4,0.4
					c0,0,0,0,0,0.1c0,0.2,0,0.4-0.1,0.5c0,0.5,0.6,0.8,1.1,0.8c0.3,0,1-0.1,1.2-0.5c0.1-0.7-0.8-1.3-1.5-1.3"/>
			</g>
		</g>
		<g id="g1224" transform="translate(483.4721,811.1119)">
			<g id="path1226">
				<path inkscape:connector-curvature="0" sodipodi:nodetypes="csccc" class="st0" d="M209.9-6.6c0,0.2-0.3,0.5-0.3,0.7
					c0,0.4,0.2,0.8,0.6,0.9c0.1-0.1,0.5,0,0.7-0.1C210.8-5.6,210.4-6.5,209.9-6.6"/>
			</g>
		</g>
		<g id="g1228" transform="translate(484.034,812.4091)">
			<g id="path1230">
				<path inkscape:connector-curvature="0" sodipodi:nodetypes="cccsc" class="st0" d="M209.9-6.6c-0.1,0.1-0.4,0.2-0.5,0.3
					c0.1,0.1,0.3,0.3,0.4,0.3c0.3-0.1,0.3-0.5,0.3-0.7c0,0-0.4-0.1-0.4-0.1"/>
			</g>
		</g>
		<g id="g1240" transform="translate(483.1799,813.9537)">
			<g id="path1242">
				<path inkscape:connector-curvature="0" sodipodi:nodetypes="cccc" class="st0" d="M209.9-6.6c-0.2-0.3-1,0.1-0.9,0.4
					c0.1,0.2,0.8,0.1,0.9-0.3C210-6.5,210-6.5,209.9-6.6"/>
			</g>
		</g>
		<g id="g1244" transform="translate(483.2597,813.9512)">
			<g id="path1246">
				<path inkscape:connector-curvature="0" sodipodi:nodetypes="ccccc" class="st0" d="M209.9-6.7c0,0-0.1,0-0.2,0
					c0,0,0.1,0.4,0.1,0.4c0,0,0.3-0.3,0.4-0.3c0,0-0.2-0.1-0.2-0.1"/>
			</g>
		</g>
		<g id="g1236" transform="translate(483.3311,813.9531)">
			<g id="path1238">
				<path inkscape:connector-curvature="0" sodipodi:nodetypes="cccsc" class="st0" d="M209.9-6.6c0,0-0.1,0.1-0.1,0.1
					c-0.3,1,0.7,1.7,1.3,1.3c0-0.1,0.2-0.3,0.2-0.3C211.3-6.2,210.7-6.9,209.9-6.6"/>
			</g>
		</g>
		<g id="g1248" transform="translate(480.2892,813.436)">
			<g id="path1250">
				<path inkscape:connector-curvature="0" class="st0" d="M209.9-6.6c-0.3,0-0.6,0.1-0.8,0.4c0.1,0.2,0.2,0.4,0.2,0.6
					c0,0.3-0.1,0.5-0.3,0.7c0,0,0.1,0.1,0.1,0.1c0.3-0.3,0.7-0.5,1.1-0.5c0.2,0,0.5,0.1,0.7,0.1c0-0.1,0.1-0.3,0.1-0.4
					c0-0.1,0-0.2,0-0.3c-0.4-0.2-0.7-0.4-0.8-0.8C210.1-6.6,210-6.6,209.9-6.6"/>
			</g>
		</g>
		<g id="g1252" transform="translate(479.4883,813.7936)">
			<g id="path1254">
				<path inkscape:connector-curvature="0" sodipodi:nodetypes="cscsc" class="st0" d="M209.9-6.6c-0.2,0.2-0.5,0.5-0.5,0.7
					c0,0.2,0.2,0.6,0.5,0.6c0.3-0.1,0.5-0.5,0.5-0.7C210.4-6.2,210.1-6.4,209.9-6.6"/>
			</g>
		</g>
		<g id="g1256" transform="translate(480.4731,813.4517)">
			<g id="path1258">
				<path inkscape:connector-curvature="0" sodipodi:nodetypes="ccc" class="st0" d="M209.9-6.6c-0.1,0.4,0.4,0.9,0.9,0.8
					C211-6.1,210.3-6.9,209.9-6.6"/>
			</g>
		</g>
		<g id="g1260" transform="translate(472.2109,812.7894)">
			<g id="path1262">
				<path inkscape:connector-curvature="0" class="st0" d="M209.9-6.6c-0.8,0-1.4,0.6-1.4,1.4c0,0.8,0.6,1.4,1.4,1.4
					c0.8,0,1.4-0.6,1.4-1.4C211.3-6,210.7-6.6,209.9-6.6"/>
			</g>
		</g>
		<g id="g1264" transform="translate(460.37,816.9027)">
			<g id="path1266">
				<path inkscape:connector-curvature="0" class="st0" d="M209.9-6.6c-0.8,0-1.4,0.6-1.4,1.4c0,0.8,0.6,1.4,1.4,1.4
					s1.4-0.6,1.4-1.4C211.3-6,210.7-6.6,209.9-6.6"/>
			</g>
		</g>
		<g id="g1268" transform="translate(455.4214,815.2068)">
			<g id="path1270">
				<path inkscape:connector-curvature="0" class="st0" d="M209.9-6.6c-0.2,0-0.3,0-0.4,0.1c-0.1,0.1-0.2,0.1-0.3,0.2
					c-0.2,0.2-0.3,0.5-0.3,0.8c0,0.6,0.5,1.1,1,1.1c0.6,0,1.1-0.5,1.1-1.1C211-6.1,210.5-6.6,209.9-6.6"/>
			</g>
		</g>
		<g id="g1272" transform="translate(454.982,815.3036)">
			<g id="path1274">
				<path inkscape:connector-curvature="0" class="st0" d="M209.9-6.6c-0.1,0-0.2,0.1-0.3,0.2C209.8-6.5,209.9-6.5,209.9-6.6"/>
			</g>
		</g>
		<g id="g1280" transform="translate(482.0312,815.6261)">
			<g id="path1282">
				<path inkscape:connector-curvature="0" class="st0" d="M209.9-6.6c0,0.1,0.1,0.1,0.1,0.2C210-6.4,210-6.5,209.9-6.6"/>
			</g>
		</g>
		<g id="g1284" transform="translate(480.6319,814.7722)">
			<g id="path1286">
				<path inkscape:connector-curvature="0" sodipodi:nodetypes="ccscc" class="st0" d="M209.2-6.6c-0.2,0.1-0.4,0.5-0.4,0.5
					c0,0.3,0.4,0.6,0.7,0.6c0.5,0,1.2-0.4,1.1-0.9c-0.1-0.5-0.5-0.4-0.8-0.4"/>
			</g>
		</g>
		<g id="g1288" transform="translate(487.2012,777.6417)">
			<g id="path1290">
				<path inkscape:connector-curvature="0" class="st0" d="M209.9-6.6C209.9-6.6,209.9-6.6,209.9-6.6c-0.3,0.9-1.2,1.6-2.2,1.6
					c0,0-0.1,0-0.1,0c-0.1,0.2-0.1,0.5-0.1,0.8c0,0.5,0.2,1,0.5,1.4c0.1,0,0.2,0,0.4,0c0.6,0,1.1,0.4,1.3,1c0.1,0,0.2,0,0.3,0
					c0.6,0,1.1-0.2,1.5-0.6c-0.1,0-0.1,0-0.2,0c-0.7,0-1.3-0.6-1.3-1.3s0.6-1.3,1.3-1.3c0.4,0,0.8,0.2,1,0.5
					C212.2-5.6,211.2-6.6,209.9-6.6"/>
			</g>
		</g>
		<g id="g1292" transform="translate(471.2589,777.7952)">
			<g id="path1294">
				<path inkscape:connector-curvature="0" sodipodi:nodetypes="ccscscscscc" class="st0" d="M209.9-6.6c-0.9,0-1.8,0.6-2.1,1.4
					c0.5,0.3,0.8,0.8,0.8,1.4c0,0.4-0.2,0.9-0.5,1.1c0.4,0.6,1.1,1,1.9,1c0.6,0,1.2-0.2,1.6-0.6c0.3,0,0.7-0.2,0.7-0.3
					c0-0.6,0.3-0.8,0.1-1.2c0-0.1,0-0.2,0-0.4c0-0.2,0-0.4-0.1-0.6C212.7-5.6,211-7,209.9-6.6"/>
			</g>
		</g>
		<g id="g1296" transform="translate(446.6219,797.8824)">
			<g id="path1298">
				<path inkscape:connector-curvature="0" class="st0" d="M209.9-6.6c-1,0-1.7,0.8-1.7,1.7c0,1,0.8,1.7,1.7,1.7
					c0.9,0,1.7-0.8,1.7-1.7C211.7-5.8,210.9-6.6,209.9-6.6"/>
			</g>
		</g>
		<g id="g1300" transform="translate(471.1126,771.0721)">
			<g id="path1302">
				<path inkscape:connector-curvature="0" sodipodi:nodetypes="ccccscsccsc" class="st0" d="M209.9-6.6c-0.5,0-0.9,0.2-1.2,0.4
					c0,0.1,0.1,0.2,0.1,0.3c0,0.5-0.4,0.9-0.9,1c0,0.1,0,0.2,0,0.4c0,0.5,0.2,1,0.5,1.4c0.2,0.6,0.5,0.8,1.1,0.8
					c0.7,0,1.3,0.7,1.5-0.1c0.1-0.1,0.4-0.7,0.6-0.8c0.3-0.4,0.5-0.8,0.5-1.3C212-5.7,211.1-6.6,209.9-6.6"/>
			</g>
		</g>
		<g id="g1308" transform="translate(465.5652,770.3243)">
			<g id="path1310">
				<path inkscape:connector-curvature="0" class="st0" d="M209.9-6.6c-1.1,0-2.1,0.9-2.1,2.1c0,1,0.7,1.8,1.6,2
					c0.1-0.6,0.7-1,1.3-1c0.3,0,0.6,0.1,0.8,0.3c0.3-0.3,0.4-0.8,0.4-1.2C212-5.7,211.1-6.6,209.9-6.6"/>
			</g>
		</g>
		<g id="g1312" transform="translate(482.2267,781.2164)">
			<g id="path1314">
				<path inkscape:connector-curvature="0" sodipodi:nodetypes="ccsccccscsscsccscc" class="st0" d="M209.9-6.6
					c-0.2,0-0.3,0-0.5,0.1v0c0,1.1-0.8,2.1-1.9,2.3c0.1,0.1,0.2,0.3,0.2,0.4c0.1,0.4,0.1,0.7-0.1,1c0.1,0.1,0.2,0.3,0.2,0.4
					c0.1,0,0.2,0,0.3,0c0.6,0,1.1,0.4,1.3,1c0.2,0,0.3,0,0.5,0c1.4,0,2.6-1.2,2.6-2.6c0,0,0-0.1,0-0.1c-0.3-0.2-0.5-0.6-0.5-1
					c0-0.1,0-0.2,0-0.3c-0.1-0.1-0.2-0.3-0.3-0.4c-0.2,0.1-0.4,0.1-0.6,0.1C210.7-5.7,210.2-6.1,209.9-6.6
					C210-6.6,210-6.6,209.9-6.6"/>
			</g>
		</g>
		<g id="g1316" transform="translate(483.5172,779.5336)">
			<g id="path1318">
				<path inkscape:connector-curvature="0" class="st0" d="M209.9-6.6c-0.7,0-1.3,0.6-1.3,1.3c0,0.1,0,0.3,0.1,0.4
					c0.7,0,1.3,0.3,1.8,0.8c0.4-0.2,0.7-0.7,0.7-1.2C211.2-6,210.7-6.6,209.9-6.6"/>
			</g>
		</g>
		<g id="g1324" transform="translate(489.5821,779.8156)">
			<g id="path1326">
				<path inkscape:connector-curvature="0" sodipodi:nodetypes="cscsc" class="st0" d="M209.9-6.6c-0.6,0.2-0.9,0.8-0.9,0.8
					c0,0.1-0.1,0.2,0.1,1.2c0.6-0.1,1.1-0.6,1.1-1.3C210.2-6.1,210.1-6.4,209.9-6.6"/>
			</g>
		</g>
		<g id="g1328" transform="translate(488.5392,779.2845)">
			<g id="path1330">
				<path inkscape:connector-curvature="0" class="st0" d="M209.9-6.6c-0.7,0-1.3,0.6-1.3,1.3s0.6,1.3,1.3,1.3c0.1,0,0.1,0,0.2,0
					c0.5-0.4,0.8-1.1,0.8-1.8c0-0.1,0-0.1,0-0.2C210.8-6.4,210.4-6.6,209.9-6.6"/>
			</g>
		</g>
		<g id="g1332" transform="translate(462.3258,781.9888)">
			<g id="path1334">
				<path inkscape:connector-curvature="0" sodipodi:nodetypes="ccscscsc" class="st0" d="M209.9-6.6c0,0.1,0,0.2-0.1,0.3
					c0.4,0.2,0.7,0.7,0.7,1.3c0,0,0,0,0,0.1c0.2,0.1,0.4,0.1,0.5,0.1c0.7,0,1.2-0.5,1.3-1.1c-0.5-0.2-0.6,0.4-1,0.4
					C210.8-5.6,210.2-6,209.9-6.6"/>
			</g>
		</g>
		<g id="g1336" transform="translate(447.4198,779.485)">
			<g id="path1338">
				<path inkscape:connector-curvature="0" sodipodi:nodetypes="cssccsc" class="st0" d="M209.9-6.6c-0.9,0-1.6,0.7-1.6,1.6
					c0,0.9,0.7,1.6,1.6,1.6c0,0,0.1,0,0.1,0c0.7,0.4,1.9-0.2,1.5-1.4c0-0.1,0-0.1,0-0.2C211.6-5.9,210.8-6.6,209.9-6.6"/>
			</g>
		</g>
		<g id="g1340" transform="translate(452.2827,777.3958)">
			<g id="path1342">
				<path inkscape:connector-curvature="0" class="st0" d="M209.9-6.6c-0.7,0-1.3,0.6-1.3,1.3c0,0.2,0.1,0.4,0.2,0.6
					c0.4-0.8,1.3-1.3,2.2-1.3C210.8-6.3,210.4-6.6,209.9-6.6"/>
			</g>
		</g>
		<g id="g1352" transform="translate(455.9126,783.5905)">
			<g id="path1354">
				<path inkscape:connector-curvature="0" class="st0" d="M209.9-6.6c-0.7,0-1.3,0.6-1.3,1.3c0,0.7,0.6,1.3,1.3,1.3
					c0.3,0,0.5-0.1,0.8-0.2c0-0.1,0-0.1,0-0.2c0-0.5,0.2-1,0.4-1.3C210.9-6.3,210.5-6.6,209.9-6.6"/>
			</g>
		</g>
		<g id="g1356" transform="translate(442.048,776.1772)">
			<g id="path1358">
				<path inkscape:connector-curvature="0" class="st0" d="M209.9-6.6c-0.7,0-1.3,0.6-1.3,1.3c0,0.7,0.6,1.3,1.3,1.3
					c0.7,0,1.3-0.6,1.3-1.3C211.2-6,210.7-6.6,209.9-6.6"/>
			</g>
		</g>
		<g id="g1360" transform="translate(444.0797,782.8524)">
			<g id="path1362">
				<path inkscape:connector-curvature="0" class="st0" d="M209.9-6.6c-0.7,0-1.3,0.6-1.3,1.3c0,0.7,0.6,1.3,1.3,1.3
					c0.7,0,1.3-0.6,1.3-1.3C211.2-6,210.7-6.6,209.9-6.6"/>
			</g>
		</g>
		<g id="g1372" transform="translate(480.205,785.4092)">
			<g id="path1374">
				<path inkscape:connector-curvature="0" class="st0" d="M209.9-6.6c-0.6,0.1-1,0.6-1,1.3c0,0.7,0.6,1.3,1.3,1.3
					c0.7,0,1.3-0.6,1.3-1.3c0-0.1,0-0.2,0-0.3C210.9-5.8,210.3-6.1,209.9-6.6"/>
			</g>
		</g>
		<g id="g1380" transform="translate(475.8531,778.9106)">
			<g id="path1382">
				<path inkscape:connector-curvature="0" sodipodi:nodetypes="cccsccssc" class="st0" d="M209.9-6.6c-0.1,0-0.1,0-0.2,0
					c-0.4-0.3-1,0.2-0.8,0.5c-0.2,0.2-0.2,0.5-0.2,0.8c0,0.1,0,0.2,0.1,0.4c-0.1,0.4,0.6,1.1,0.9,0.9c0.1,0,0.2,0,0.3,0
					c0.7,0,1.3-0.6,1.3-1.3C211.2-6,210.7-6.6,209.9-6.6"/>
			</g>
		</g>
		<g id="g1384" transform="translate(460.4017,777.8578)">
			<g id="path1386">
				<path inkscape:connector-curvature="0" sodipodi:nodetypes="cscscsc" class="st0" d="M209.9-6.6c-0.4,0.3,0.1-1.7-0.4-1.6
					c-1.4,0.1-1.6,1.4-1,2.2c0.2,0.4,0.6,0.7,1.1,0.7c0.1,0,0.2,0,0.4-0.1c-0.1-0.2-0.1-0.4-0.1-0.7C209.9-6.3,209.9-6.4,209.9-6.6"
					/>
			</g>
		</g>
		<g id="g1388" transform="translate(456.055,771.3277)">
			<g id="path1390">
				<path inkscape:connector-curvature="0" class="st0" d="M209.9-6.6c-0.7,0-1.3,0.6-1.3,1.3c0,0.7,0.6,1.3,1.3,1.3
					c0.7,0,1.3-0.6,1.3-1.3C211.2-6,210.7-6.6,209.9-6.6"/>
			</g>
		</g>
		<g id="g1392" transform="translate(477.919,772.3255)">
			<g id="path1394">
				<path inkscape:connector-curvature="0" class="st0" d="M209.9-6.6c-0.6,0-1.2,0.5-1.2,1.2c0,0.3,0.1,0.6,0.3,0.8
					c0.3-0.2,0.7-0.4,1.1-0.4c0.3,0,0.5,0.1,0.8,0.2c0.1-0.2,0.1-0.4,0.1-0.6C211.1-6.1,210.6-6.6,209.9-6.6"/>
			</g>
		</g>
		<g id="g1400" transform="translate(478.9385,774.0477)">
			<g id="path1402">
				<path inkscape:connector-curvature="0" class="st0" d="M209.9-6.6c-0.2,0.4-0.6,0.6-1,0.6c-0.3,0-0.7-0.1-0.9-0.4
					c-0.5,0.3-0.8,0.9-0.8,1.5c0,0,0,0,0,0c0.1,0.3,0.2,0.6,0.2,0.9c0.1,0.2,0.3,0.5,0.5,0.6c0.3-0.4,0.8-0.6,1.3-0.6
					c0.4,0,0.9,0.2,1.1,0.5c0.2-0.2,0.4-0.5,0.5-0.9c-0.1-0.1-0.1-0.3-0.1-0.5c0-0.2,0-0.3,0.1-0.5c0,0,0-0.1,0-0.1
					c-0.3-0.2-0.5-0.5-0.6-0.9C210.2-6.4,210.1-6.5,209.9-6.6"/>
			</g>
		</g>
		<g id="g1408" transform="translate(485.2972,781.478)">
			<g id="path1410">
				<path inkscape:connector-curvature="0" class="st0" d="M209.9-6.6c-0.4,0.1-0.8,0.5-0.9,0.9c0.2,0.4,0.4,0.8,0.4,1.3
					c0.2,0.2,0.5,0.3,0.8,0.3c0.7,0,1.3-0.6,1.3-1.3c0-0.1,0-0.2,0-0.3C210.9-5.7,210.3-6.1,209.9-6.6"/>
			</g>
		</g>
		<g id="g1420" transform="translate(455.9126,786.734)">
			<g id="path1422">
				<path inkscape:connector-curvature="0" class="st0" d="M209.9-6.6c-0.5,0-0.9,0.4-0.9,0.9c0,0.5,0.4,0.9,0.9,0.9
					s0.9-0.4,0.9-0.9C210.9-6.2,210.4-6.6,209.9-6.6"/>
			</g>
		</g>
		<g id="g1424" transform="translate(474.2635,780.5228)">
			<g id="path1426">
				<path inkscape:connector-curvature="0" class="st0" d="M209.9-6.6c-0.2,0-0.3,0-0.5,0.1c-0.1,0.6-0.4,1.1-0.8,1.5
					c0.1,0.6,0.6,1,1.3,1c0.1,0,0.3,0,0.4-0.1c0-0.1,0-0.1,0-0.2c0-0.4,0.3-0.7,0.7-0.7c0.1,0,0.1,0,0.2,0c0-0.1,0-0.2,0-0.3
					c0-0.1,0-0.3-0.1-0.4c-0.4-0.1-0.8-0.5-0.9-0.9C210.2-6.6,210.1-6.6,209.9-6.6"/>
			</g>
		</g>
		<g id="g1436" transform="translate(477.9137,783.0858)">
			<g id="path1438">
				<path inkscape:connector-curvature="0" sodipodi:nodetypes="ccccsccscsc" class="st0" d="M209.9-6.6c-0.1,0-0.2,0.1-0.2,0.2
					c0.1,0.4-0.2,0.9-0.5,1c0,0.2,0,0.3,0.1,0.5c0.2,0.7,0.8,1.1,1.4,1.1c0.1,0,0.3,0,0.4-0.1c0.4-0.1,0.8-0.4,0.9-0.8
					c-0.2-0.4-0.3-0.8-0.3-1.2c0-0.1,0-0.1,0-0.2c-0.1,0-0.2,0-0.3,0C210.9-6.1,210.3-6.3,209.9-6.6"/>
			</g>
		</g>
		<g id="g1444" transform="translate(475.5278,782.1646)">
			<g id="path1446">
				<path inkscape:connector-curvature="0" sodipodi:nodetypes="ccsccc" class="st0" d="M209.9-6.6c-0.7-0.4-1.5,0.3-0.9,0.9
					c0.1,0.3,0.4,0.5,0.7,0.5c0.1,0,0.3,0,0.4-0.1c0-0.3,0.1-0.6,0.3-0.8C210.4-6.3,210.2-6.5,209.9-6.6"/>
			</g>
		</g>
		<g id="g1452" transform="translate(479.7708,771.4226)">
			<g id="path1454">
				<path inkscape:connector-curvature="0" class="st0" d="M209.9-6.6c-0.4,0-0.7,0.3-0.7,0.7c0,0.4,0.3,0.7,0.7,0.7
					c0.2-0.2,0.4-0.4,0.7-0.4c0-0.1,0.1-0.2,0.1-0.3C210.7-6.3,210.4-6.6,209.9-6.6"/>
			</g>
		</g>
		<g id="g1468" transform="translate(458.8152,778.9042)">
			<g id="path1470">
				<path inkscape:connector-curvature="0" class="st0" d="M209.9-6.6c-0.9,0-1.5,0.7-1.5,1.5c0,0.6,0.4,1.2,1,1.4
					c0.2-0.2,0.6-0.4,0.9-0.4c0.2,0,0.4,0,0.6,0.1c0.3-0.3,0.6-0.7,0.6-1.2C211.5-5.9,210.8-6.6,209.9-6.6"/>
			</g>
		</g>
		<g id="g1472" transform="translate(447.3512,775.3625)">
			<g id="path1474">
				<path inkscape:connector-curvature="0" class="st0" d="M209.9-6.6c-0.5,0-0.9,0.4-0.9,0.9s0.4,0.9,0.9,0.9
					c0.5,0,0.9-0.4,0.9-0.9S210.5-6.6,209.9-6.6"/>
			</g>
		</g>
		<g id="g1476" transform="translate(454.0804,782.9778)">
			<g id="path1478">
				<path inkscape:connector-curvature="0" class="st0" d="M209.9-6.6c-0.2,0.1-0.5,0.1-0.7,0.1c-0.2,0-0.3,0-0.5,0
					c-0.1,0.1-0.1,0.2-0.1,0.4c0,0.4,0.3,0.7,0.7,0.7c0.4,0,0.7-0.3,0.7-0.7C210.1-6.3,210-6.5,209.9-6.6"/>
			</g>
		</g>
		<g id="g1480" transform="translate(455.3955,805.6854)">
			<g id="path1482">
				<path inkscape:connector-curvature="0" class="st0" d="M209.9-6.6c-0.4,0-0.7,0.3-0.7,0.7c0,0.4,0.3,0.7,0.7,0.7
					c0.4,0,0.7-0.3,0.7-0.7C210.7-6.3,210.3-6.6,209.9-6.6"/>
			</g>
		</g>
		<g id="g1488" transform="translate(469.8807,807.9113)">
			<g id="path1490">
				<path inkscape:connector-curvature="0" sodipodi:nodetypes="ccssc" class="st0" d="M209.9-6.6c-0.9,0-1.3,0.9-1.2,1.8
					c0,0.1,0.3,0.2,0.5,0.2c0.6,0,1.2-0.7,1.2-1.3C210.4-6.2,210.3-6.5,209.9-6.6"/>
			</g>
		</g>
		<g id="g1492" transform="translate(470.0907,769.1841)">
			<g id="path1494">
				<path inkscape:connector-curvature="0" class="st0" d="M209.9-6.6c-0.5,0-0.9,0.4-0.9,0.9c0,0.5,0.4,0.9,0.9,0.9
					c0.5,0,0.9-0.4,0.9-0.9C210.9-6.2,210.5-6.6,209.9-6.6"/>
			</g>
		</g>
		<g id="g1524" transform="translate(485.0271,774.8652)">
			<g id="path1526">
				<path inkscape:connector-curvature="0" class="st0" d="M209.9-6.6c-1,0-1.9,0.7-2.1,1.7c0.6,0.3,1,0.8,1,1.5
					c0,0.3-0.1,0.5-0.2,0.7c0.3,0.3,0.8,0.4,1.2,0.4c0.3-0.9,1.2-1.6,2.2-1.6c0.1-0.2,0.1-0.4,0.1-0.6
					C212.1-5.6,211.2-6.6,209.9-6.6"/>
			</g>
		</g>
		<g id="g1532" transform="translate(479.4934,777.1141)">
			<g id="path1534">
				<path inkscape:connector-curvature="0" sodipodi:nodetypes="cscscscsc" class="st0" d="M209.9-6.6c-0.3,0.3-0.8,0.5-1.3,0.5
					c-0.4,0-0.8-0.1-1.1-0.4c-0.2,0.3-0.3,0.6-0.3,0.9c0,0.7,0.4,1.2,0.9,1.5c0.2,0.3,0.6,0.6,1.3,0.6c0.1,0,0.9-0.9,0.8-1.3
					c0.1-0.2,0.2-0.5,0.2-0.8C210.4-5.9,210.2-6.3,209.9-6.6"/>
			</g>
		</g>
		<g id="g1540" transform="translate(468.3244,779.0152)">
			<g id="path1542">
				<path inkscape:connector-curvature="0" sodipodi:nodetypes="cccscscscc" class="st0" d="M209.9-6.6
					C209.9-6.6,209.9-6.6,209.9-6.6c-1.1-0.3-0.9,0.5-1.1,0.7c0.3,0.3,0.9,0.7,0.9,1.2c0,0.5-0.2,0.9-0.4,1.2
					c0.2,0.1,0.4,0.1,0.6,0.1c0.4,0,0.8-0.2,1.1-0.5c0.5-0.1,0.9-0.8,0.9-1.3c0-0.4-0.7-1.2-1.2-1.2C210.5-6.5,210.2-6.6,209.9-6.6"
					/>
			</g>
		</g>
		<g id="g1548" transform="translate(465.8212,779.0004)">
			<g id="path1550">
				<path inkscape:connector-curvature="0" sodipodi:nodetypes="ccscscscc" class="st0" d="M209.9-6.6c-0.5,0.1-1,0.5-1.3,0.9
					c0.5,0.3,0.8,0.8,0.8,1.4c0,0.4-0.1,0.8-0.4,1c0.3,0.3,0.7,0.4,1.2,0.4c0.6,0,1.1-0.3,1.5-0.7c0.4-0.2,0.8-0.4,0.8-1.1
					c0-0.3-0.5-1.5-1.3-2.1C210.8-6.8,210.4-6.9,209.9-6.6"/>
			</g>
		</g>
		<g id="g1552" transform="translate(464.5695,779.9073)">
			<g id="path1554">
				<path inkscape:connector-curvature="0" sodipodi:nodetypes="cscccsc" class="st0" d="M209.9-6.6c-0.2,0.3-0.3,0.6-0.3,1
					c0,0.2,0,0.3,0.1,0.5c0.2,0.2,0.4,0.5,0.5,0.8c0.1,0.1,0.1,0.1,0.2,0.2c0.4-0.1,0.8-0.7,0.8-1.1C211.2-5.8,210.6-6.7,209.9-6.6"
					/>
			</g>
		</g>
		<g id="g1556" transform="translate(464.3757,781.3779)">
			<g id="path1558">
				<path inkscape:connector-curvature="0" class="st0" d="M209.9-6.6c0.1,0.3,0.2,0.6,0.5,0.8C210.4-6.1,210.2-6.4,209.9-6.6"/>
			</g>
		</g>
		<g id="g1564" transform="translate(451.195,784.6439)">
			<g id="path1566">
				<path inkscape:connector-curvature="0" class="st0" d="M209.9-6.6c-1.2,0-2.3,1-2.3,2.3c0,1.2,1,2.3,2.3,2.3
					c1.2,0,2.3-1,2.3-2.3C212.2-5.6,211.2-6.6,209.9-6.6"/>
			</g>
		</g>
		<g id="g1568" transform="translate(443.6491,787.948)">
			<g id="path1570">
				<path inkscape:connector-curvature="0" class="st0" d="M209.9-6.6c-0.9,0-1.6,0.7-1.6,1.6c0,0.9,0.7,1.6,1.6,1.6
					s1.6-0.7,1.6-1.6C211.5-5.9,210.8-6.6,209.9-6.6"/>
			</g>
		</g>
		<g id="g1584" transform="translate(467.0172,777.1044)">
			<g id="path1586">
				<path inkscape:connector-curvature="0" class="st0" d="M209.9-6.6c-0.7,0-1.3,0.6-1.3,1.4c0,0.2,0,0.4,0.1,0.5
					c0.1,0,0.3,0,0.4,0c0.4,0,0.8,0.1,1.1,0.4c0.3-0.2,0.6-0.3,0.9-0.3c0.1-0.2,0.1-0.4,0.1-0.6c0-0.3-0.1-0.5-0.2-0.7
					C210.7-6,210.2-6.2,209.9-6.6"/>
			</g>
		</g>
		<g id="g1600" transform="translate(446.3614,793.7285)">
			<g id="path1602">
				<path inkscape:connector-curvature="0" class="st0" d="M209.9-6.6c-1,0-1.8,0.8-1.8,1.7c0,1,0.8,1.8,1.7,1.8c0,0,0,0,0,0
					c1,0,1.8-0.8,1.8-1.7C211.8-5.7,211-6.6,209.9-6.6C210-6.6,210-6.6,209.9-6.6"/>
			</g>
		</g>
		<g id="g1604" transform="translate(467.2234,773.6235)">
			<g id="path1606">
				<path inkscape:connector-curvature="0" class="st0" d="M209.9-6.6c-0.4,0.5-1,0.8-1.7,0.8c-0.2,0-0.3,0-0.5-0.1
					c0,0.1,0,0.2,0,0.3c0,0.7,0.6,1.4,1.4,1.4c0.1,0,0.2,0,0.3,0c0-0.6,0.5-1.2,1.1-1.4C210.5-6,210.3-6.3,209.9-6.6"/>
			</g>
		</g>
		<g id="g1612" transform="translate(459.7869,781.6405)">
			<g id="path1614">
				<path inkscape:connector-curvature="0" sodipodi:nodetypes="cscscsccscc" class="st0" d="M209.9-6.6C209.7-7,209.4-7,209.1-7
					c-0.2,0-0.6,0.2-0.6,0.6c-0.3,0.2-0.4,0.6-0.4,1c0,0.3,0.1,0.6,0.2,0.8c0.3-0.1,0.5-0.2,0.8-0.2c0.4,0,0.9,0.1,1.2,0.4
					c0,0,0,0,0,0c0-0.1,0.5-0.1,0.5-0.2c0-0.4,0.1-0.7-0.1-1.1C210.6-6.1,210.3-6.4,209.9-6.6"/>
			</g>
		</g>
		<g id="g1628" transform="translate(460.3391,770.6456)">
			<g id="path1630">
				<path inkscape:connector-curvature="0" class="st0" d="M209.9-6.6c-0.7,0-1.4,0.6-1.4,1.4c0,0.7,0.6,1.4,1.4,1.4
					c0.8,0,1.4-0.6,1.4-1.4C211.3-6,210.7-6.6,209.9-6.6"/>
			</g>
		</g>
		<g id="g1632" transform="translate(474.602,770.0424)">
			<g id="path1634">
				<path inkscape:connector-curvature="0" class="st0" d="M209.9-6.6c-0.9,0-1.6,0.7-1.6,1.6c0,0.9,0.7,1.6,1.6,1.6
					c0.9,0,1.6-0.7,1.6-1.6C211.5-5.9,210.8-6.6,209.9-6.6"/>
			</g>
		</g>
		<g id="g1636" transform="translate(468.3003,774.5651)">
			<g id="path1638">
				<path inkscape:connector-curvature="0" sodipodi:nodetypes="ccscscscssccc" class="st0" d="M209.9-6.6c-0.2,0-0.4,0-0.5,0.1
					c0,0,0,0,0,0.1c0,0.6-0.5,1.2-1.1,1.3c0,0,0,0.1,0,0.1c0,0.4,0.1,0.7,0.3,0.9c0,0,0.3,0.7,0.4,0.7c0.5,0,0.6,0.2,0.9,0
					c0,0,0.1,0,0.1,0c0.9,0,1.6-0.7,1.6-1.6c0-0.1,0-0.1,0-0.2c-0.2-0.2-0.4-0.5-0.4-0.9C210.8-6.4,210.4-6.6,209.9-6.6"/>
			</g>
		</g>
		<g id="g1648" transform="translate(479.7507,778.9861)">
			<g id="path1650">
				<path inkscape:connector-curvature="0" sodipodi:nodetypes="cscscccccc" class="st0" d="M209.9-6.6c-0.3,0.5-0.8,0.8-1.4,0.8
					c-0.2,0-0.5,0-0.7-0.1c-0.4,0.4-0.6,1-0.6,1.6c0,0.7,0.3,1.4,0.9,1.8c0,0.3,0.2,0.6,0.3,0.5c0.4,0.1,1,0.5,1.4,0l0-0.2
					c0.2-1.1,1-1.9,2-2.1C211.9-5.5,211.1-6.4,209.9-6.6"/>
			</g>
		</g>
		<g id="g1668" transform="translate(473.8288,774.2)">
			<g id="path1670">
				<path inkscape:connector-curvature="0" sodipodi:nodetypes="cccscscsccsccccc" class="st0" d="M209.9-6.6
					c-0.4,0-0.8,0.1-1.1,0.2c-0.8,0.3-1.3,0.9-1.6,1.9c0,0.2-0.1,0.4-0.1,0.5c0,0.3,0.1,0.6,0.1,0.9c0,0,0.1,0,0.1,0
					c1.1,0,2.1,0.8,2.4,1.8c0,0,0.1,0,0.1,0c0.3,0,0.7-0.1,1-0.2c0.2-0.3,0.5-0.5,0.8-0.5c0.5-0.5,0.9-1.2,0.9-2c0-0.1,0-0.2,0-0.3
					c-0.1-0.3-0.2-0.6-0.2-0.9c-0.1-0.2-0.2-0.3-0.3-0.5c-0.3-1.3-1.1-1.5-1.9-1.1C210.1-6.6,210-6.6,209.9-6.6"/>
			</g>
		</g>
		<g id="g1692" transform="translate(449.3406,781.2776)">
			<g id="path1694">
				<path inkscape:connector-curvature="0" class="st0" d="M209.9-6.6C209.9-6.6,209.9-6.6,209.9-6.6c-0.2,0-0.2,0-0.3,0
					c-0.1,0.7-0.7,1.3-1.5,1.4c0,0.1,0,0.3,0,0.4c0,1,0.8,1.7,1.8,1.7c0,0,0,0,0.1,0c1,0,1.8-0.9,1.7-1.9
					C211.7-5.8,210.9-6.6,209.9-6.6"/>
			</g>
		</g>
		<g id="g1700" transform="translate(459.3156,811.4547)">
			<g id="path1702">
				<path inkscape:connector-curvature="0" class="st0" d="M209.9-6.6c-0.9,0.1-1.6,0.9-1.6,1.8c0,1,0.8,1.8,1.8,1.8
					c0.1,0,0.2,0,0.3,0c0-0.1,0-0.1,0-0.2c0-0.6,0.5-1,1-1c0.1,0,0.3,0,0.4,0.1c0.1-0.2,0.1-0.4,0.1-0.7c0-0.6-0.3-1.1-0.8-1.5
					c-0.1,0-0.2,0-0.3,0C210.5-6.2,210.2-6.4,209.9-6.6"/>
			</g>
		</g>
		<g id="g1720" transform="translate(482.7002,773.523)">
			<g id="path1722">
				<path inkscape:connector-curvature="0" sodipodi:nodetypes="ccsccssc" class="st0" d="M209.9-6.6c-0.1,0-0.2,0-0.3,0
					c-0.4,0-0.8,0-0.8,0.2c0,0.5-0.6,1.3,0.2,1.4c0.1,0.1,0.1,0.2,0.2,0.4c0.2,0.1,0.4,0.2,0.7,0.2c0.6,0,1.1-0.5,1.1-1.1
					S210.6-6.6,209.9-6.6"/>
			</g>
		</g>
		<g id="g1724" transform="translate(481.7531,775.2561)">
			<g id="path1726">
				<path inkscape:connector-curvature="0" sodipodi:nodetypes="csccscsccscc" class="st0" d="M209.4-7.4c-0.2,0.2-0.4,0.2-0.7,0.2
					c-0.3,0-0.4,0.3-0.5,0.6c0,0,0,0,0,0.1c0,0.1,0.1,0.3,0.1,0.4c0,0.2,0,0.3-0.1,0.5c0.2,0.4,0.5,0.6,1,0.6c0,0,0.1,0,0.1,0
					c0.4,0.3,0.7-0.1,0.7-0.4c0.2-0.2,0.2-0.4,0.2-0.7c0-0.1,0-0.2,0-0.2c0.1-0.2,0.1-0.4,0-0.5"/>
			</g>
		</g>
		<g id="g1760" transform="translate(459.0327,774.2398)">
			<g id="path1762">
				<path inkscape:connector-curvature="0" class="st0" d="M209.9-6.6c-1,0-1.8,0.7-2,1.7c-0.2,1.1,0.5,2.2,1.7,2.4
					c0.1,0,0.2,0,0.3,0c-0.1-0.2-0.2-0.4-0.2-0.6c0-0.7,0.6-1.3,1.3-1.3c0.3,0,0.6,0.1,0.9,0.3c0,0,0.1-0.1,0.1-0.1c0,0,0,0,0-0.1
					c0.2-1.1-0.5-2.2-1.7-2.4C210.2-6.6,210.1-6.6,209.9-6.6"/>
			</g>
		</g>
		<g id="g1776" transform="translate(439.6596,791.4898)">
			<g id="path1778">
				<path inkscape:connector-curvature="0" class="st0" d="M209.9-6.6c-0.4,0-0.8,0.3-0.9,0.7c-0.1,0.5,0.2,0.9,0.7,1
					c0.1,0,0.1,0,0.2,0c0.4,0,0.8-0.3,0.9-0.7c0.1-0.5-0.2-0.9-0.7-1C210.1-6.6,210-6.6,209.9-6.6"/>
			</g>
		</g>
		<g id="g1780" transform="translate(443.5399,798.1953)">
			<g id="path1782">
				<path inkscape:connector-curvature="0" class="st0" d="M209.9-6.6c-0.3,0-0.6,0.2-0.7,0.6c-0.1,0.4,0.2,0.8,0.6,0.8
					c0,0,0.1,0,0.1,0c0.3,0,0.6-0.2,0.7-0.6c0.1-0.4-0.2-0.8-0.6-0.8C210-6.6,210-6.6,209.9-6.6"/>
			</g>
		</g>
		<g id="g1784" transform="translate(480.889,772.365)">
			<g id="path1786">
				<path inkscape:connector-curvature="0" class="st0" d="M209.9-6.6c-0.2,0-0.3,0-0.4,0.1c-0.1,0.3-0.4,0.4-0.7,0.4c0,0,0,0,0,0
					c-0.3,0.3-0.4,0.7-0.4,1.1c0,0.1,0,0.2,0,0.4c0.3,0.2,0.5,0.6,0.6,0.9c0,0,0,0,0.1,0c0.2-0.3,0.5-0.5,0.9-0.5
					c0.2,0,0.5,0.1,0.6,0.2c0-0.1,0-0.2,0-0.3c0-0.5,0.4-1,0.8-1.1C211.3-6.1,210.7-6.6,209.9-6.6"/>
			</g>
		</g>
		<g id="g1812" transform="translate(487.3995,808.6038)">
			<g id="path1814">
				<path inkscape:connector-curvature="0" sodipodi:nodetypes="cccscc" class="st0" d="M209.9-6.7c-0.8,0-2,0.4-1.9,1.2
					c0,0.6,0.8,0.9,1.4,1.1c0.6-0.2,1-1.1,1-1.7c0-0.2-0.1-0.4-0.2-0.5c-0.1,0-0.5-0.1-0.6-0.1"/>
			</g>
		</g>
		<g id="g1220" transform="translate(486.8545,810.491)">
			<g id="path1222">
				<path inkscape:connector-curvature="0" sodipodi:nodetypes="cscscsc" class="st0" d="M209.9-6.6c-0.3-0.1-0.6,0-0.9,0
					c-0.3,0-0.4-0.1-0.6,0c-0.2,0.1-0.3,0.4-0.3,0.4c0,1,1.4,1.9,1.9,1.8c0.7-0.2,0.4-0.9,0.4-1.3C210.5-6.2,210.3-6.6,209.9-6.6"/>
			</g>
		</g>
		<g id="g1816" transform="translate(485.3179,809.7206)">
			<g id="path1818">
				<path inkscape:connector-curvature="0" sodipodi:nodetypes="ccccc" class="st0" d="M209.9-6.6c-0.2,0-0.5,0-0.7,0.1
					c-0.2,0.5,0,1.3,0.6,0.9c0.4-0.1,0.4-0.6,0.3-1C210.1-6.6,210-6.6,209.9-6.6"/>
			</g>
		</g>
		<g id="g1820" transform="translate(485.5565,809.7352)">
			<g id="path1822">
				<path inkscape:connector-curvature="0" class="st0" d="M209.9-6.6c-0.1,0.2-0.2,0.5-0.2,0.8c0.2,0.1,0.5,0.2,0.7,0.2
					c0.3,0,0.5-0.1,0.8-0.2C210.9-6.2,210.5-6.5,209.9-6.6"/>
			</g>
		</g>
		<g id="g1828" transform="translate(482.6138,808.0526)">
			<g id="path1830">
				<path inkscape:connector-curvature="0" sodipodi:nodetypes="ccscc" class="st0" d="M209.4-6.8c-0.4,0-0.3,0.6-0.3,0.6
					c0,0.5,0.5,1,1.1,1c0.2,0,1-0.1,1.1-0.4c0.3-0.5-0.7-1.3-1.3-1.3"/>
			</g>
		</g>
		<g id="g1832" transform="translate(485.2916,807.7131)">
			<g id="path1834">
				<path inkscape:connector-curvature="0" sodipodi:nodetypes="ccc" class="st0" d="M209.9-6.6c-0.4-0.1-1,0.8-0.8,1
					C209.5-5.5,210.2-6.2,209.9-6.6"/>
			</g>
		</g>
		<g id="g1840" transform="translate(479.9268,806.8155)">
			<g id="path1842">
				<path inkscape:connector-curvature="0" sodipodi:nodetypes="cccc" class="st0" d="M209.9-6.6C209.9-6.6,209.9-6.5,209.9-6.6
					c-0.1,0.4,0.4,0.7,0.8,0.5C210.8-6.4,210.3-6.7,209.9-6.6"/>
			</g>
		</g>
		<g id="g1844" transform="translate(481.9331,805.3665)">
			<g id="path1846">
				<path inkscape:connector-curvature="0" sodipodi:nodetypes="cscsc" class="st0" d="M209.9-6.6c-0.5,0.2-1,0.9-1,1.5
					c0,0.1,0.1,0.3,0.2,0.3c0.4,0.2,1.3-0.4,1.3-0.9C210.5-5.9,210.3-6.5,209.9-6.6"/>
			</g>
		</g>
		<g id="g1848" transform="translate(477.5432,805.0599)">
			<g id="path1850">
				<path inkscape:connector-curvature="0" class="st0" d="M209.9-6.6c-0.7,0-1.3,0.6-1.3,1.3c0,0.6,0.4,1.1,1,1.3
					c0.2-0.3,0.6-0.6,1-0.8c-0.3-0.2-0.5-0.6-0.5-1c0-0.3,0.1-0.5,0.2-0.7C210.3-6.6,210.1-6.6,209.9-6.6"/>
			</g>
		</g>
		<g id="g1856" transform="translate(480.845,803.2141)">
			<g id="path1858">
				<path inkscape:connector-curvature="0" class="st0" d="M209.9-6.6c-0.7,0-1.3,0.6-1.3,1.3c0,0.1,0,0.1,0,0.2
					c0.2,0.1,0.3,0.2,0.4,0.3c0.2-0.2,0.5-0.3,0.8-0.3c0.4,0,0.8,0.2,1.1,0.6c0.2-0.2,0.3-0.5,0.3-0.8C211.2-6,210.7-6.6,209.9-6.6"
					/>
			</g>
		</g>
		<g id="g1860" transform="translate(480.8124,804.7141)">
			<g id="path1862">
				<path inkscape:connector-curvature="0" sodipodi:nodetypes="cccscc" class="st0" d="M209.6-6.7c-0.3,0-0.4,0.2-0.5,0.4
					c0.2,0.2,0.3,0.4,0.3,0.7c0.2,0.2,0.4,0.3,0.6,0.3c0.4,0,0.9-0.6,1-0.7c0-0.4-0.5-0.7-1-0.7"/>
			</g>
		</g>
		<g id="g876" transform="translate(476.6704,818.0033)">
			<g id="path878">
				<path inkscape:connector-curvature="0" class="st0" d="M209.9-6.6C209.9-6.6,209.9-6.6,209.9-6.6c-0.2,0.1-0.4,0.2-0.6,0.2
					c-0.1,0.1-0.1,0.1-0.2,0.2c0,0.1,0,0.2,0,0.2c0,0.2,0,0.4-0.1,0.6c0.1,0.3,0.5,0.6,0.8,0.6c0.5,0,0.9-0.4,0.9-0.9
					C210.9-6.2,210.4-6.6,209.9-6.6"/>
			</g>
		</g>
		<g id="g848" transform="translate(476.3579,813.8265)">
			<g id="path850">
				<path inkscape:connector-curvature="0" class="st0" d="M209.9-6.6c-0.1,0.5-0.6,0.8-1.1,0.8c-0.4,0-0.8-0.2-1-0.6
					c-0.6,0.4-1,1.1-1,1.9c0,0.5,0.1,0.9,0.4,1.2c0.2-0.1,0.5-0.2,0.7-0.2c0.7,0,1.4,0.5,1.5,1.2c0.1,0,0.1,0,0.2,0
					c0.1-0.1,0.3-0.2,0.5-0.2c0.1-0.1,0.3-0.2,0.4-0.2c-0.3-0.2-0.5-0.6-0.5-1c0-0.6,0.5-1.2,1.2-1.2c0.1,0,0.1,0,0.2,0
					c0-0.2-0.1-0.4-0.1-0.5c-0.1-0.1-0.1-0.2-0.2-0.3C210.8-6.1,210.4-6.4,209.9-6.6"/>
			</g>
		</g>
		<g id="g1192" transform="translate(470.5325,815.8789)">
			<g id="path1194">
				<path inkscape:connector-curvature="0" class="st0" d="M209.9-6.6C209.9-6.6,209.9-6.6,209.9-6.6c0,0.8-0.6,1.4-1.4,1.4
					c-0.4,0-0.7-0.2-1-0.4c-0.3,0.4-0.4,0.9-0.4,1.4c0,1.3,1.1,2.4,2.4,2.4c1.3,0,2.4-1.1,2.4-2.4C211.9-5.4,211.1-6.4,209.9-6.6"/>
			</g>
		</g>
		<g id="g1484" transform="translate(469.1332,807.6105)">
			<g id="path1486">
				<path inkscape:connector-curvature="0" class="st0" d="M209.9-6.6c-0.6,0-1.1,0.5-1.1,1.1c0,0.4,0.3,0.8,0.6,1
					c0.1-0.8,0.6-1.4,1.2-1.8C210.5-6.5,210.2-6.6,209.9-6.6"/>
			</g>
		</g>
		<g id="g892" transform="translate(475.1191,806.2894)">
			<g id="path894">
				<path inkscape:connector-curvature="0" class="st0" d="M209.9-6.6c-0.4,0-0.7,0.3-0.7,0.7c0,0.1,0,0.1,0,0.2
					c0.4,0.1,0.7,0.3,0.9,0.6c0.3-0.1,0.6-0.4,0.6-0.7C210.7-6.3,210.4-6.6,209.9-6.6"/>
			</g>
		</g>
		<g id="g952" transform="translate(477.4419,810.6046)">
			<g id="path954">
				<path inkscape:connector-curvature="0" class="st0" d="M209.9-6.6c-0.6,0.2-0.9,0.8-0.9,1.5c0,0.8,0.6,1.4,1.3,1.6
					c0.2-0.2,0.5-0.3,0.8-0.3c0.1,0,0.3,0,0.4,0.1c0.4-0.3,0.7-0.8,0.7-1.3c0-0.3-0.1-0.5-0.2-0.8c-0.1,0-0.2,0-0.4,0
					C211-5.9,210.4-6.1,209.9-6.6"/>
			</g>
		</g>
		<g id="g1276" transform="translate(481.2878,814.9144)">
			<g id="path1278">
				<path inkscape:connector-curvature="0" class="st0" d="M209.9-6.6c-0.2,0.4-0.5,0.7-1,0.7c-0.3,0-0.6-0.1-0.8-0.3
					c-0.3,0.3-0.4,0.7-0.4,1.1c0,0.9,0.7,1.6,1.6,1.6c0.9,0,1.6-0.7,1.6-1.6c0-0.2,0-0.3-0.1-0.5c0-0.1-0.1-0.1-0.1-0.2
					C210.5-6.2,210.3-6.4,209.9-6.6"/>
			</g>
		</g>
		<g id="g1232" transform="translate(483.1916,814.0576)">
			<g id="path1234">
				<path inkscape:connector-curvature="0" class="st0" d="M209.9-6.6c-0.3,0.2-0.6,0.3-0.9,0.3c-0.2,0.2-0.3,0.5-0.3,0.9
					c0,0.1,0,0.3,0.1,0.4c0,0.1,0.1,0.1,0.1,0.2c0.2,0.4,0.6,0.7,1.1,0.7c0.7,0,1.2-0.5,1.3-1.1C210.6-5.3,210-5.9,209.9-6.6"/>
			</g>
		</g>
		<g id="g1200" transform="translate(482.1187,810.5507)">
			<g id="path1202">
				<path inkscape:connector-curvature="0" class="st0" d="M209.9-6.6c-1.1,0-1.9,0.9-1.9,1.9c0,0.4,0.1,0.7,0.3,1
					c0.4,0.1,0.7,0.4,0.9,0.8c0.2,0.1,0.5,0.2,0.8,0.2c0.1,0,0.1,0,0.2,0c0.2-0.2,0.5-0.4,0.9-0.4c0,0,0-0.1,0-0.1
					c0-0.5,0.2-0.9,0.5-1.2c-0.2-0.3-0.3-0.6-0.3-1c0-0.2,0-0.4,0.1-0.5c-0.2-0.2-0.5-0.4-0.8-0.5c0,0,0,0-0.1,0
					C210.3-6.5,210.1-6.5,209.9-6.6C210-6.6,210-6.6,209.9-6.6"/>
			</g>
		</g>
		<g id="g1208" transform="translate(483.6891,812.6506)">
			<g id="path1210">
				<path inkscape:connector-curvature="0" sodipodi:nodetypes="cscsccc" class="st0" d="M209.9-6.6c-0.5-0.1-0.7,0.7-0.7,1.1
					c0,0,0.2,0.1,0.2,0.2c0,0,0.1,0,0.1,0c0,0,0,0,0.1,0c0.6,0,1-0.3,0.6-1C210.1-6.3,210-6.5,209.9-6.6"/>
			</g>
		</g>
		<g id="g948" transform="translate(483.9626,812.9929)">
			<g id="path950">
				<path inkscape:connector-curvature="0" class="st0" d="M209.9-6.6c-0.1,0.4-0.3,0.7-0.6,1c0.7,0,1.2,0.6,1.2,1.3
					c0,0.1,0,0.1,0,0.2c0.1,0,0.2,0,0.2,0c0.9,0,1.6-0.7,1.6-1.6c0-0.2,0-0.4-0.1-0.5c-0.3,0.2-0.6,0.3-1,0.3
					C210.8-6,210.3-6.2,209.9-6.6"/>
			</g>
		</g>
		<g id="g1188" transform="translate(487.5949,808.6128)">
			<g id="path1190">
				<path inkscape:connector-curvature="0" class="st0" d="M209.9-6.6c0.1,0.2,0.1,0.3,0.1,0.5c0,0.6-0.3,1.1-0.8,1.4
					c0.2,0.3,0.4,0.7,0.4,1.1c0,0.4-0.1,0.7-0.3,1c0.2,0,0.3,0.1,0.5,0.1c1.1,0,2.1-0.9,2.1-2.1C211.8-5.6,211-6.5,209.9-6.6"/>
			</g>
		</g>
		<g id="g1808" transform="translate(486.0742,807.5063)">
			<g id="path1810">
				<path inkscape:connector-curvature="0" class="st0" d="M209.9-6.6c-0.3,0-0.6,0.1-0.8,0.2c-0.1,0.4-0.4,0.8-0.8,1
					c0,0.1,0,0.2,0,0.4c0,0.3,0.1,0.5,0.2,0.7c0.2-0.1,0.4-0.1,0.7-0.1c0.1,0,0.2,0,0.2,0c0.3-0.7,1-1.1,1.8-1.1c0.1,0,0.1,0,0.2,0
					C211.3-6.1,210.7-6.6,209.9-6.6"/>
			</g>
		</g>
		<g id="g800" transform="translate(481.6963,808.4348)">
			<g id="path802">
				<path inkscape:connector-curvature="0" class="st0" d="M209.9-6.6c-0.1,0.1-0.2,0.2-0.3,0.4c0,0.1,0,0.1,0,0.2
					c0,0.2,0,0.4-0.1,0.7c0.1,0.4,0.4,0.7,0.8,0.9c0.2,0,0.4,0,0.5,0.1c0.7,0,1.2-0.6,1.2-1.3c0-0.1,0-0.2,0-0.3
					c-0.2,0.1-0.4,0.1-0.6,0.1C210.9-5.9,210.3-6.1,209.9-6.6"/>
			</g>
		</g>
		<g id="g1824" transform="translate(483.2795,804.887)">
			<g id="path1826">
				<path inkscape:connector-curvature="0" class="st0" d="M209.9-6.6c-0.5,0-1,0.2-1.3,0.5c0.1,0.2,0.2,0.4,0.2,0.6
					c0,0.6-0.4,1.1-0.9,1.2c0.1,0.5,0.2,0.9,0.5,1.2c0.2-0.2,0.6-0.4,0.9-0.4c0.6,0,1.1,0.4,1.3,1c0.2-0.1,0.5-0.2,0.7-0.3
					c0.1-0.4,0.4-0.8,0.8-1c0.1-0.2,0.1-0.5,0.1-0.7C212.1-5.6,211.1-6.6,209.9-6.6"/>
			</g>
		</g>
		<g id="g1836" transform="translate(481.8748,805.274)">
			<g id="path1838">
				<path inkscape:connector-curvature="0" class="st0" d="M209.9-6.6c-0.2,0.3-0.6,0.5-1,0.5c-0.2,0-0.4,0-0.5-0.1
					c0,0.1,0,0.1,0,0.2c0,0.4-0.2,0.7-0.4,0.9c0.3,0.1,0.6,0.3,0.8,0.5c0,0,0.1,0,0.1,0c0.1,0,0.2,0,0.4,0c0-0.1,0-0.2,0-0.2
					C209.2-5.5,209.5-6.1,209.9-6.6C210-6.5,210-6.6,209.9-6.6"/>
			</g>
		</g>
		<g id="g1396" transform="translate(475.2489,773.3337)">
			<g id="path1398">
				<path inkscape:connector-curvature="0" class="st0" d="M209.9-6.6c-0.5,0-1,0.4-1.1,0.9c0.8,0.1,1.5,0.5,1.9,1.1
					c0.2-0.2,0.4-0.5,0.4-0.9C211.1-6.1,210.6-6.6,209.9-6.6"/>
			</g>
		</g>
		<g id="g1712" transform="translate(482.2267,776.4204)">
			<g id="path1714">
				<path inkscape:connector-curvature="0" class="st0" d="M209.9-6.6c-0.1,0-0.3,0-0.4,0.1c-0.2,0.2-0.4,0.3-0.7,0.4
					c-0.3,0.3-0.5,0.7-0.5,1.2c0,0.9,0.7,1.7,1.7,1.7c0.7,0,1.2-0.4,1.5-0.9c-0.5-0.4-0.9-1-0.9-1.8c0-0.2,0-0.3,0.1-0.5
					C210.4-6.5,210.2-6.6,209.9-6.6"/>
			</g>
		</g>
	</g>
</g>
<g>
	<path class="st0" d="M262.3,47.3l-6.4-6.4l1.7-1.7l6.4,6.4l6.5-6.4l1.6,1.7l-6.4,6.4l6.4,6.4l-1.7,1.7L264,49l-6.4,6.4l-1.6-1.7
		L262.3,47.3z"/>
</g>
<g>
	<path class="st0" d="M58.5,44.5H55v-2.7h3.5v-3.6c0-2.2,0.4-3.8,1.2-4.8c0.8-1.1,2.3-1.6,4.3-1.6c0.3,0,0.7,0,1.1,0
		c0.4,0,0.8,0.1,1.2,0.2L66,34.7c-0.3-0.1-0.6-0.2-0.9-0.2c-0.3,0-0.6-0.1-0.9-0.1c-0.6,0-1,0.1-1.4,0.3c-0.3,0.2-0.6,0.4-0.8,0.7
		c-0.2,0.3-0.3,0.7-0.4,1.1c-0.1,0.4-0.1,1-0.1,1.5v3.7h3.7v2.7h-3.7V58h-3.1V44.5z"/>
	<path class="st0" d="M67.9,49.9c0-1.2,0.2-2.3,0.7-3.3s1.1-1.9,1.8-2.7c0.8-0.8,1.7-1.4,2.7-1.8c1-0.4,2.2-0.7,3.4-0.7
		c1.2,0,2.3,0.2,3.4,0.7c1,0.4,2,1.1,2.7,1.8c0.8,0.8,1.4,1.7,1.8,2.7s0.7,2.1,0.7,3.3c0,1.2-0.2,2.3-0.7,3.3s-1.1,1.9-1.8,2.7
		c-0.8,0.8-1.7,1.4-2.7,1.8c-1.1,0.4-2.2,0.7-3.4,0.7c-1.2,0-2.3-0.2-3.4-0.7c-1.1-0.4-2-1-2.7-1.8c-0.8-0.8-1.4-1.7-1.8-2.7
		S67.9,51.1,67.9,49.9z M71.2,49.9c0,0.8,0.1,1.6,0.4,2.3c0.3,0.7,0.6,1.3,1.1,1.8c0.5,0.5,1,0.9,1.7,1.2c0.7,0.3,1.4,0.4,2.2,0.4
		s1.6-0.1,2.2-0.4c0.7-0.3,1.2-0.7,1.7-1.2c0.5-0.5,0.8-1.1,1.1-1.8c0.3-0.7,0.4-1.5,0.4-2.3c0-0.8-0.1-1.6-0.4-2.3
		c-0.3-0.7-0.6-1.3-1.1-1.8c-0.5-0.5-1-0.9-1.7-1.2c-0.7-0.3-1.4-0.4-2.2-0.4s-1.6,0.1-2.2,0.4c-0.7,0.3-1.2,0.7-1.7,1.2
		c-0.5,0.5-0.8,1.1-1.1,1.8C71.4,48.3,71.2,49.1,71.2,49.9z"/>
	<path class="st0" d="M89.1,41.8h3.1v2.5h0.1c0.2-0.4,0.5-0.8,0.8-1.2c0.3-0.4,0.7-0.7,1.1-0.9c0.4-0.3,0.9-0.5,1.4-0.6
		c0.5-0.1,1-0.2,1.5-0.2c0.5,0,1,0.1,1.4,0.2l-0.1,3.3c-0.3-0.1-0.5-0.1-0.8-0.2c-0.3,0-0.5-0.1-0.8-0.1c-1.5,0-2.7,0.4-3.5,1.3
		c-0.8,0.8-1.2,2.2-1.2,3.9V58h-3.1V41.8z"/>
	<path class="st0" d="M101.7,41.8h3.1v2.3h0.1c0.6-0.9,1.4-1.5,2.4-2c1-0.5,2.1-0.7,3.2-0.7c1.3,0,2.4,0.2,3.4,0.7
		c1,0.4,1.9,1,2.6,1.8c0.7,0.8,1.3,1.7,1.7,2.7c0.4,1,0.6,2.2,0.6,3.3c0,1.2-0.2,2.3-0.6,3.4c-0.4,1-0.9,1.9-1.7,2.7
		c-0.7,0.8-1.6,1.4-2.6,1.8c-1,0.4-2.2,0.7-3.4,0.7c-1.2,0-2.3-0.2-3.3-0.7c-1-0.5-1.8-1.2-2.4-2h-0.1v12h-3.1V41.8z M110.2,44.3
		c-0.8,0-1.6,0.1-2.2,0.4c-0.7,0.3-1.2,0.7-1.7,1.2c-0.5,0.5-0.8,1.1-1.1,1.8c-0.3,0.7-0.4,1.5-0.4,2.3c0,0.8,0.1,1.6,0.4,2.3
		c0.3,0.7,0.6,1.3,1.1,1.8c0.5,0.5,1,0.9,1.7,1.2s1.4,0.4,2.2,0.4c0.8,0,1.6-0.1,2.2-0.4c0.7-0.3,1.2-0.7,1.7-1.2
		c0.5-0.5,0.8-1.1,1.1-1.8c0.3-0.7,0.4-1.5,0.4-2.3c0-0.8-0.1-1.6-0.4-2.3c-0.3-0.7-0.6-1.3-1.1-1.8c-0.5-0.5-1-0.9-1.7-1.2
		C111.7,44.4,111,44.3,110.2,44.3z"/>
	<path class="st0" d="M125,51.1c0,0.7,0.2,1.4,0.5,1.9c0.3,0.6,0.7,1.1,1.2,1.5c0.5,0.4,1.1,0.7,1.7,1s1.3,0.3,2.1,0.3
		c1,0,1.8-0.2,2.5-0.7c0.7-0.4,1.4-1,2-1.8l2.3,1.8c-1.7,2.2-4.1,3.3-7.2,3.3c-1.3,0-2.4-0.2-3.5-0.7c-1-0.4-1.9-1-2.6-1.8
		c-0.7-0.8-1.3-1.7-1.7-2.7c-0.4-1-0.6-2.2-0.6-3.4c0-1.2,0.2-2.3,0.6-3.4c0.4-1,1-1.9,1.7-2.7c0.7-0.8,1.6-1.4,2.7-1.8
		s2.1-0.7,3.4-0.7c1.4,0,2.7,0.3,3.6,0.8c1,0.5,1.8,1.2,2.4,2c0.6,0.8,1.1,1.7,1.4,2.7c0.3,1,0.4,2,0.4,3.1v1.1H125z M134.7,48.6
		c0-0.7-0.1-1.3-0.3-1.9c-0.2-0.6-0.5-1.1-0.9-1.5c-0.4-0.4-0.9-0.8-1.5-1s-1.3-0.4-2-0.4c-0.8,0-1.4,0.1-2.1,0.4
		c-0.6,0.3-1.2,0.7-1.6,1.1c-0.4,0.5-0.8,1-1,1.5c-0.2,0.6-0.4,1.1-0.4,1.7H134.7z"/>
	<path class="st0" d="M142,32.1h3.1V58H142V32.1z"/>
	<path class="st0" d="M149.1,49.9c0-1.2,0.2-2.3,0.7-3.3s1.1-1.9,1.8-2.7c0.8-0.8,1.7-1.4,2.7-1.8c1-0.4,2.2-0.7,3.4-0.7
		c1.2,0,2.3,0.2,3.4,0.7c1,0.4,2,1.1,2.7,1.8c0.8,0.8,1.4,1.7,1.8,2.7s0.7,2.1,0.7,3.3c0,1.2-0.2,2.3-0.7,3.3s-1.1,1.9-1.8,2.7
		c-0.8,0.8-1.7,1.4-2.7,1.8c-1.1,0.4-2.2,0.7-3.4,0.7c-1.2,0-2.3-0.2-3.4-0.7c-1.1-0.4-2-1-2.7-1.8c-0.8-0.8-1.4-1.7-1.8-2.7
		S149.1,51.1,149.1,49.9z M152.4,49.9c0,0.8,0.1,1.6,0.4,2.3c0.3,0.7,0.6,1.3,1.1,1.8c0.5,0.5,1,0.9,1.7,1.2
		c0.7,0.3,1.4,0.4,2.2,0.4s1.6-0.1,2.2-0.4c0.7-0.3,1.2-0.7,1.7-1.2c0.5-0.5,0.8-1.1,1.1-1.8c0.3-0.7,0.4-1.5,0.4-2.3
		c0-0.8-0.1-1.6-0.4-2.3c-0.3-0.7-0.6-1.3-1.1-1.8c-0.5-0.5-1-0.9-1.7-1.2c-0.7-0.3-1.4-0.4-2.2-0.4s-1.6,0.1-2.2,0.4
		c-0.7,0.3-1.2,0.7-1.7,1.2c-0.5,0.5-0.8,1.1-1.1,1.8C152.6,48.3,152.4,49.1,152.4,49.9z"/>
	<path class="st0" d="M179,44.5h-4.4v7.4c0,0.5,0,0.9,0,1.4c0,0.4,0.1,0.8,0.3,1.2c0.1,0.4,0.4,0.6,0.7,0.9c0.3,0.2,0.8,0.3,1.4,0.3
		c0.4,0,0.7,0,1.1-0.1s0.7-0.2,1.1-0.4v2.8c-0.4,0.2-0.8,0.3-1.4,0.4s-1,0.1-1.4,0.1c-1.2,0-2.1-0.2-2.8-0.5
		c-0.7-0.3-1.1-0.8-1.4-1.3c-0.3-0.5-0.5-1.1-0.5-1.8c-0.1-0.7-0.1-1.3-0.1-2v-8.5h-3.6v-2.7h3.6v-4.6h3.1v4.6h4.4V44.5z"/>
	<path class="st0" d="M182.2,49.9c0-1.2,0.2-2.3,0.7-3.3s1.1-1.9,1.8-2.7c0.8-0.8,1.7-1.4,2.7-1.8c1-0.4,2.2-0.7,3.4-0.7
		c1.2,0,2.3,0.2,3.4,0.7c1,0.4,2,1.1,2.7,1.8c0.8,0.8,1.4,1.7,1.8,2.7s0.7,2.1,0.7,3.3c0,1.2-0.2,2.3-0.7,3.3s-1.1,1.9-1.8,2.7
		c-0.8,0.8-1.7,1.4-2.7,1.8c-1.1,0.4-2.2,0.7-3.4,0.7c-1.2,0-2.3-0.2-3.4-0.7c-1.1-0.4-2-1-2.7-1.8c-0.8-0.8-1.4-1.7-1.8-2.7
		S182.2,51.1,182.2,49.9z M185.4,49.9c0,0.8,0.1,1.6,0.4,2.3c0.3,0.7,0.6,1.3,1.1,1.8c0.5,0.5,1,0.9,1.7,1.2
		c0.7,0.3,1.4,0.4,2.2,0.4s1.6-0.1,2.2-0.4c0.7-0.3,1.2-0.7,1.7-1.2c0.5-0.5,0.8-1.1,1.1-1.8c0.3-0.7,0.4-1.5,0.4-2.3
		c0-0.8-0.1-1.6-0.4-2.3c-0.3-0.7-0.6-1.3-1.1-1.8c-0.5-0.5-1-0.9-1.7-1.2c-0.7-0.3-1.4-0.4-2.2-0.4s-1.6,0.1-2.2,0.4
		c-0.7,0.3-1.2,0.7-1.7,1.2c-0.5,0.5-0.8,1.1-1.1,1.8C185.6,48.3,185.4,49.1,185.4,49.9z"/>
	<path class="st0" d="M203.3,41.8h3.1v2.5h0.1c0.4-0.9,1.1-1.6,2-2.1c1-0.5,2.1-0.8,3.3-0.8c0.8,0,1.5,0.1,2.2,0.4
		c0.7,0.2,1.3,0.6,1.9,1.1c0.5,0.5,1,1.1,1.3,1.9s0.5,1.7,0.5,2.8V58h-3.1v-9.6c0-0.8-0.1-1.4-0.3-1.9c-0.2-0.5-0.5-1-0.8-1.3
		c-0.3-0.3-0.7-0.6-1.2-0.7c-0.4-0.1-0.9-0.2-1.4-0.2c-0.6,0-1.2,0.1-1.8,0.3s-1,0.5-1.4,1s-0.7,1-1,1.7c-0.2,0.7-0.3,1.5-0.3,2.4
		V58h-3.1V41.8z"/>
</g>
</svg>
