<?xml version="1.0" encoding="utf-8"?>
<!-- Generator: Adobe Illustrator 21.0.2, SVG Export Plug-In . SVG Version: 6.00 Build 0)  -->
<svg version="1.1" id="Layer_1" xmlns="http://www.w3.org/2000/svg" xmlns:xlink="http://www.w3.org/1999/xlink" x="0px" y="0px"
	 viewBox="0 0 166.4 42.3" style="enable-background:new 0 0 166.4 42.3;" xml:space="preserve">
<style type="text/css">
	.st0{fill:#FFFFFF;}
</style>
<g>
	<g>
		<path class="st0" d="M26,36.6H0v-7.5h4.6v-7.5H0v-6.9h4.6v-2.4c0-1.6,0.3-3.1,0.8-4.5C6,6.3,6.8,5,7.9,3.8C9,2.7,10.4,1.7,12,1
			c1.6-0.7,3.5-1,5.5-1c1.9,0,3.8,0.3,5.6,0.8c1.9,0.5,3.6,1.4,5.1,2.8L29,4.2l-6.2,6.6L22,10.1c-0.6-0.6-1.2-1-1.9-1.3
			c-0.7-0.3-1.3-0.5-1.8-0.5c-0.9,0-1.6,0.1-2.2,0.4c-0.6,0.3-1,0.6-1.4,1.1c-0.3,0.5-0.6,1-0.7,1.5c-0.2,0.6-0.2,1.3-0.2,1.9v1.4
			h7.5v6.9h-7.5v7.5H26V36.6z M2,34.6h22v-3.5H11.8V19.6h7.5v-2.9h-7.5v-3.4c0-0.8,0.1-1.6,0.3-2.4c0.2-0.9,0.6-1.6,1.1-2.3
			c0.5-0.7,1.2-1.2,2.1-1.7c0.9-0.4,1.9-0.6,3.1-0.6C19.2,6.3,20,6.6,21,7c0.6,0.3,1.2,0.6,1.7,1l3.4-3.6c-1-0.8-2.2-1.3-3.5-1.7
			C21,2.2,19.2,2,17.5,2c-1.8,0-3.4,0.3-4.7,0.9c-1.3,0.6-2.5,1.4-3.4,2.3c-0.9,1-1.6,2.1-2.1,3.3C6.8,9.7,6.6,11,6.6,12.3v4.4H2
			v2.9h4.6v11.5H2V34.6z"/>
	</g>
	<g>
		<path class="st0" d="M43.2,37.1c-3.2,0-6-0.8-8.4-2.3c-2.4-1.5-4-4-4.8-7.3l-0.2-1l9.6-2.2l0.2,1c0.2,1,0.6,1.8,1.2,2.3
			c0.6,0.5,1.5,0.8,2.8,0.8c1.3,0,2.2-0.3,2.7-0.9c0.6-0.6,0.9-1.4,0.9-2.5c0-0.7-0.1-1.3-0.4-1.6c-0.3-0.4-0.7-0.7-1.1-0.9
			c-0.5-0.2-1.2-0.3-1.8-0.4c-0.8,0-1.6-0.1-2.3-0.1h-2.7V14h3.4c0.6,0,1.2,0,1.8-0.1c0.5-0.1,1-0.2,1.4-0.5
			c0.4-0.2,0.7-0.5,0.9-0.8c0.2-0.3,0.3-0.8,0.3-1.4c0-0.7-0.3-1.3-0.9-1.8c-0.6-0.5-1.4-0.8-2.4-0.8c-0.9,0-1.6,0.2-2.1,0.7
			c-0.6,0.5-0.9,1-1.1,1.7L40,12l-9.9-2l0.3-1c0.4-1.6,1.1-3,1.9-4.1c0.8-1.1,1.9-2.1,3-2.8c1.1-0.7,2.4-1.2,3.8-1.5
			c2.8-0.7,6.1-0.7,8.9,0.1c1.5,0.4,2.9,1,4,1.9c1.2,0.9,2.1,2,2.8,3.3c0.7,1.3,1.1,2.9,1.1,4.7c0,2.1-0.6,3.9-1.7,5.4
			c-0.6,0.8-1.4,1.5-2.2,2c0.1,0.1,0.2,0.1,0.4,0.2c0.9,0.5,1.6,1.2,2.3,2c0.6,0.8,1.1,1.7,1.4,2.7c0.3,1,0.5,2,0.5,3.1
			c0,1.8-0.4,3.5-1.1,4.9c-0.7,1.4-1.7,2.6-2.9,3.5c-1.2,0.9-2.6,1.6-4.2,2.1C46.7,36.9,45,37.1,43.2,37.1z M32.3,28.1
			c0.7,2.3,1.9,4,3.7,5.1c2,1.3,4.5,2,7.3,2c1.6,0,3.1-0.2,4.5-0.6c1.4-0.4,2.6-1,3.5-1.7c1-0.8,1.8-1.7,2.4-2.9
			c0.6-1.1,0.9-2.5,0.9-4c0-0.9-0.1-1.7-0.4-2.5c-0.3-0.8-0.6-1.5-1.1-2.1c-0.5-0.6-1-1.1-1.7-1.5c-0.7-0.4-1.4-0.7-2.3-0.8
			l-0.9-0.1v-1.8l0.8-0.2c1.7-0.3,2.9-1.1,3.7-2.2c0.9-1.2,1.3-2.6,1.3-4.3c0-1.5-0.3-2.7-0.8-3.8c-0.6-1-1.3-1.9-2.2-2.6
			c-0.9-0.7-2.1-1.2-3.3-1.6c-2.6-0.7-5.5-0.7-8-0.1c-1.2,0.3-2.3,0.7-3.2,1.3c-0.9,0.6-1.8,1.3-2.5,2.3c-0.5,0.7-0.9,1.5-1.3,2.4
			l6,1.2c0.3-0.7,0.8-1.3,1.5-1.9C41,7,42.1,6.6,43.5,6.6c1.4,0,2.6,0.4,3.6,1.2c1.1,0.9,1.6,2,1.6,3.3c0,1-0.2,1.8-0.6,2.5
			c-0.4,0.6-1,1.1-1.7,1.5c-0.6,0.3-1.3,0.5-2.1,0.7C43.7,15.9,43,16,42.2,16h-1.4v4.2h0.7c0.8,0,1.6,0,2.5,0.1
			c0.9,0.1,1.7,0.2,2.5,0.5c0.8,0.3,1.5,0.8,2,1.5c0.5,0.7,0.8,1.7,0.8,2.8c0,1.5-0.5,2.8-1.4,3.8c-0.9,1-2.4,1.5-4.2,1.5
			c-1.8,0-3.2-0.4-4.1-1.3c-0.7-0.6-1.2-1.5-1.6-2.4L32.3,28.1z"/>
	</g>
	<g>
		<path class="st0" d="M68,42.3h-8.2l4.1-15.5H73L68,42.3z M62.4,40.3h4.1l3.7-11.5h-4.8L62.4,40.3z"/>
	</g>
	<g>
		<path class="st0" d="M104,36.6H78.3v-9.1l13.5-12.2c0.6-0.6,1.3-1.2,1.9-2c0.5-0.6,0.8-1.2,0.8-2c0-0.8-0.3-1.5-0.9-1.9
			c-0.7-0.5-1.4-0.8-2.3-0.8c-1.1,0-1.8,0.3-2.4,0.9c-0.6,0.7-0.9,1.5-1,2.5l-0.1,1l-9.2-0.7l0.1-1c0.1-1.9,0.5-3.6,1.2-5
			c0.7-1.4,1.6-2.6,2.8-3.6c1.2-0.9,2.5-1.7,4.1-2.1C88.3,0.2,90,0,91.7,0c1.6,0,3.2,0.2,4.6,0.7c1.5,0.5,2.8,1.2,3.8,2.1
			c1.1,0.9,2,2.1,2.6,3.6c0.6,1.4,0.9,3,0.9,4.9c0,1.2-0.1,2.2-0.4,3.2c-0.2,1-0.6,1.8-1,2.6c-0.4,0.8-1,1.5-1.5,2.2
			c-0.6,0.6-1.2,1.3-1.9,1.9l-8.3,7.1H104V36.6z M80.3,34.6H102v-4.3H85.2l12.4-10.6c0.6-0.5,1.2-1.1,1.7-1.7
			c0.5-0.6,0.9-1.2,1.3-1.8c0.4-0.6,0.6-1.4,0.8-2.2c0.2-0.8,0.3-1.7,0.3-2.7c0-1.5-0.3-2.9-0.8-4.1c-0.5-1.1-1.2-2.1-2.1-2.8
			c-0.9-0.8-2-1.3-3.2-1.7c-1.2-0.4-2.6-0.6-4-0.6c-1.6,0-3,0.2-4.3,0.6C86.1,3,85,3.6,84,4.4c-0.9,0.8-1.7,1.7-2.3,2.9
			c-0.5,0.9-0.8,2-0.9,3.2l5.3,0.4c0.2-1,0.7-1.9,1.4-2.7c0.9-1,2.3-1.6,3.9-1.6c1.3,0,2.5,0.4,3.5,1.2c1.1,0.8,1.6,2.1,1.6,3.5
			c0,1.3-0.4,2.4-1.3,3.3c-0.7,0.8-1.4,1.5-2.1,2.1L80.3,28.4V34.6z"/>
	</g>
	<g>
		<path class="st0" d="M122,37.1c-2.7,0-5-0.6-6.8-1.8c-1.8-1.2-3.2-2.7-4.2-4.5c-1-1.8-1.7-3.8-2.1-6c-0.4-2.1-0.6-4.2-0.6-6.3
			c0-2.1,0.2-4.2,0.6-6.3c0.4-2.2,1.1-4.2,2.1-6c1-1.8,2.4-3.3,4.2-4.5C117,0.6,119.2,0,122,0c2.7,0,5,0.6,6.8,1.8
			c1.8,1.2,3.2,2.7,4.2,4.5c1,1.8,1.7,3.8,2.1,6c0.4,2.1,0.6,4.3,0.6,6.3c0,2.1-0.2,4.2-0.6,6.3c-0.4,2.2-1.1,4.2-2.1,6
			c-1,1.8-2.4,3.3-4.2,4.5C127,36.5,124.7,37.1,122,37.1z M122,2c-2.3,0-4.2,0.5-5.7,1.4c-1.5,1-2.7,2.3-3.5,3.8
			c-0.9,1.6-1.5,3.4-1.9,5.4c-0.4,2-0.5,4-0.5,6c0,2,0.2,4,0.5,6c0.3,2,1,3.8,1.9,5.4c0.9,1.5,2,2.8,3.5,3.8c1.5,1,3.4,1.4,5.7,1.4
			c2.3,0,4.2-0.5,5.7-1.4c1.5-1,2.7-2.3,3.5-3.8c0.9-1.6,1.5-3.4,1.9-5.4c0.4-2,0.5-4,0.5-6c0-1.9-0.2-4-0.5-6c-0.3-2-1-3.8-1.9-5.4
			c-0.9-1.5-2.1-2.8-3.5-3.8C126.2,2.5,124.3,2,122,2z M122,30.5c-1.6,0-2.9-0.5-3.8-1.5c-0.8-0.9-1.4-2-1.8-3.3
			c-0.4-1.2-0.6-2.5-0.7-3.8c-0.1-1.3-0.1-2.4-0.1-3.3s0-2,0.1-3.3c0.1-1.3,0.3-2.6,0.7-3.8c0.4-1.3,1-2.4,1.8-3.3
			c0.9-1,2.2-1.5,3.8-1.5c1.6,0,2.8,0.5,3.8,1.5c0.8,0.9,1.5,2,1.9,3.3c0.4,1.2,0.6,2.5,0.7,3.8c0.1,1.3,0.1,2.4,0.1,3.3
			s0,2-0.1,3.3c-0.1,1.3-0.3,2.6-0.7,3.8c-0.4,1.3-1,2.4-1.9,3.3C124.8,30,123.5,30.5,122,30.5z M122,8.6c-1,0-1.8,0.3-2.3,0.9
			c-0.6,0.7-1.1,1.5-1.4,2.6c-0.3,1.1-0.5,2.2-0.6,3.4c-0.1,1.2-0.1,2.3-0.1,3.2s0,1.9,0.1,3.2c0.1,1.2,0.3,2.3,0.6,3.4
			c0.3,1,0.8,1.9,1.4,2.6c0.5,0.6,1.3,0.9,2.3,0.9c1,0,1.7-0.3,2.3-0.9c0.6-0.7,1.1-1.5,1.4-2.5c0.3-1.1,0.5-2.2,0.6-3.4
			c0.1-1.3,0.1-2.3,0.1-3.2c0-0.9,0-1.9-0.1-3.2c-0.1-1.2-0.3-2.3-0.6-3.4c-0.3-1-0.8-1.9-1.4-2.5C123.7,8.9,123,8.6,122,8.6z"/>
	</g>
	<g>
		<path class="st0" d="M152.8,37.1c-2.7,0-5-0.6-6.8-1.8c-1.8-1.2-3.2-2.7-4.2-4.5c-1-1.8-1.7-3.8-2.1-6c-0.4-2.1-0.6-4.2-0.6-6.3
			c0-2.1,0.2-4.2,0.6-6.3c0.4-2.2,1.1-4.2,2.1-6c1-1.8,2.4-3.3,4.2-4.5c1.8-1.2,4.1-1.8,6.8-1.8s5,0.6,6.8,1.8
			c1.8,1.2,3.2,2.7,4.2,4.5c1,1.8,1.7,3.8,2.1,6c0.4,2.1,0.6,4.3,0.6,6.3c0,2.1-0.2,4.2-0.6,6.3c-0.4,2.2-1.1,4.2-2.1,6
			c-1,1.8-2.4,3.3-4.2,4.5C157.8,36.5,155.5,37.1,152.8,37.1z M152.8,2c-2.3,0-4.2,0.5-5.7,1.4c-1.5,1-2.7,2.3-3.5,3.8
			c-0.9,1.6-1.5,3.4-1.9,5.4c-0.4,2-0.5,4-0.5,6c0,2,0.2,4,0.5,6c0.3,2,1,3.8,1.9,5.4c0.9,1.5,2,2.8,3.5,3.8c1.5,1,3.4,1.4,5.7,1.4
			s4.2-0.5,5.7-1.4c1.5-1,2.7-2.3,3.5-3.8c0.9-1.6,1.5-3.4,1.9-5.4c0.4-2,0.5-4,0.5-6c0-1.9-0.2-4-0.5-6c-0.3-2-1-3.8-1.9-5.4
			c-0.9-1.5-2.1-2.8-3.5-3.8C157,2.5,155.1,2,152.8,2z M152.8,30.5c-1.6,0-2.9-0.5-3.8-1.5c-0.8-0.9-1.4-2-1.8-3.3
			c-0.4-1.2-0.6-2.5-0.7-3.8c-0.1-1.3-0.1-2.4-0.1-3.3s0-2,0.1-3.3c0.1-1.3,0.3-2.6,0.7-3.8c0.4-1.3,1-2.4,1.8-3.3
			c0.9-1,2.2-1.5,3.8-1.5c1.6,0,2.8,0.5,3.8,1.5c0.8,0.9,1.5,2,1.9,3.3c0.4,1.2,0.6,2.5,0.7,3.8c0.1,1.3,0.1,2.4,0.1,3.3
			s0,2-0.1,3.3c-0.1,1.3-0.3,2.6-0.7,3.8c-0.4,1.3-1,2.4-1.9,3.3C155.6,30,154.3,30.5,152.8,30.5z M152.8,8.6c-1,0-1.8,0.3-2.3,0.9
			c-0.6,0.7-1.1,1.5-1.4,2.6c-0.3,1.1-0.5,2.2-0.6,3.4c-0.1,1.2-0.1,2.3-0.1,3.2s0,1.9,0.1,3.2c0.1,1.2,0.3,2.3,0.6,3.4
			c0.3,1,0.8,1.9,1.4,2.6c0.5,0.6,1.3,0.9,2.3,0.9c1,0,1.7-0.3,2.3-0.9c0.6-0.7,1.1-1.5,1.4-2.5c0.3-1.1,0.5-2.2,0.6-3.4
			c0.1-1.2,0.1-2.3,0.1-3.2s0-1.9-0.1-3.2c-0.1-1.2-0.3-2.3-0.6-3.4c-0.3-1-0.8-1.9-1.4-2.5C154.5,8.9,153.8,8.6,152.8,8.6z"/>
	</g>
</g>
</svg>
